<mxfile host="app.diagrams.net" modified="2024-01-16T17:39:27.561Z" agent="Mozilla/5.0 (Macintosh; Intel Mac OS X 10_15_7) AppleWebKit/605.1.15 (KHTML, like Gecko) Version/17.2.1 Safari/605.1.15" etag="kWQ5XMQlKXj2NMiElL87" version="22.1.18" type="device">
  <diagram name="Seite-1" id="FbaxfOoMZVHEcil24a7M">
    <mxGraphModel dx="3311" dy="1394" grid="1" gridSize="10" guides="1" tooltips="1" connect="1" arrows="1" fold="1" page="1" pageScale="1" pageWidth="827" pageHeight="1169" math="0" shadow="0">
      <root>
        <mxCell id="0" />
        <mxCell id="1" parent="0" />
        <mxCell id="-Nn-KrMIZRTyAtg2YQ6r-170" value="Hangar" style="swimlane;fontStyle=1;align=center;verticalAlign=top;childLayout=stackLayout;horizontal=1;startSize=23.879464285714285;horizontalStack=0;resizeParent=1;resizeParentMax=0;resizeLast=0;collapsible=0;marginBottom=0;" vertex="1" parent="1">
          <mxGeometry x="-260" y="1450" width="469" height="511.8794642857143" as="geometry" />
        </mxCell>
        <mxCell id="-Nn-KrMIZRTyAtg2YQ6r-171" value="-lagerstandort_id : int" style="text;strokeColor=none;fillColor=none;align=left;verticalAlign=top;spacingLeft=4;spacingRight=4;overflow=hidden;rotatable=0;points=[[0,0.5],[1,0.5]];portConstraint=eastwest;" vertex="1" parent="-Nn-KrMIZRTyAtg2YQ6r-170">
          <mxGeometry y="23.879464285714285" width="469" height="24" as="geometry" />
        </mxCell>
        <mxCell id="-Nn-KrMIZRTyAtg2YQ6r-172" value="-hangar_identification : String" style="text;strokeColor=none;fillColor=none;align=left;verticalAlign=top;spacingLeft=4;spacingRight=4;overflow=hidden;rotatable=0;points=[[0,0.5],[1,0.5]];portConstraint=eastwest;" vertex="1" parent="-Nn-KrMIZRTyAtg2YQ6r-170">
          <mxGeometry y="47.879464285714285" width="469" height="24" as="geometry" />
        </mxCell>
        <mxCell id="-Nn-KrMIZRTyAtg2YQ6r-173" value="-hangar_size : float" style="text;strokeColor=none;fillColor=none;align=left;verticalAlign=top;spacingLeft=4;spacingRight=4;overflow=hidden;rotatable=0;points=[[0,0.5],[1,0.5]];portConstraint=eastwest;" vertex="1" parent="-Nn-KrMIZRTyAtg2YQ6r-170">
          <mxGeometry y="71.87946428571428" width="469" height="24" as="geometry" />
        </mxCell>
        <mxCell id="-Nn-KrMIZRTyAtg2YQ6r-174" value="-attributes : String[]" style="text;strokeColor=none;fillColor=none;align=left;verticalAlign=top;spacingLeft=4;spacingRight=4;overflow=hidden;rotatable=0;points=[[0,0.5],[1,0.5]];portConstraint=eastwest;" vertex="1" parent="-Nn-KrMIZRTyAtg2YQ6r-170">
          <mxGeometry y="95.87946428571428" width="469" height="24" as="geometry" />
        </mxCell>
        <mxCell id="-Nn-KrMIZRTyAtg2YQ6r-175" style="line;strokeWidth=1;fillColor=none;align=left;verticalAlign=middle;spacingTop=-1;spacingLeft=3;spacingRight=3;rotatable=0;labelPosition=right;points=[];portConstraint=eastwest;strokeColor=inherit;" vertex="1" parent="-Nn-KrMIZRTyAtg2YQ6r-170">
          <mxGeometry y="119.87946428571428" width="469" height="8" as="geometry" />
        </mxCell>
        <mxCell id="-Nn-KrMIZRTyAtg2YQ6r-176" value="+Hangar(haId : String, haSi : float)" style="text;strokeColor=none;fillColor=none;align=left;verticalAlign=top;spacingLeft=4;spacingRight=4;overflow=hidden;rotatable=0;points=[[0,0.5],[1,0.5]];portConstraint=eastwest;" vertex="1" parent="-Nn-KrMIZRTyAtg2YQ6r-170">
          <mxGeometry y="127.87946428571428" width="469" height="24" as="geometry" />
        </mxCell>
        <mxCell id="-Nn-KrMIZRTyAtg2YQ6r-177" value="+Hangar()" style="text;strokeColor=none;fillColor=none;align=left;verticalAlign=top;spacingLeft=4;spacingRight=4;overflow=hidden;rotatable=0;points=[[0,0.5],[1,0.5]];portConstraint=eastwest;" vertex="1" parent="-Nn-KrMIZRTyAtg2YQ6r-170">
          <mxGeometry y="151.87946428571428" width="469" height="24" as="geometry" />
        </mxCell>
        <mxCell id="-Nn-KrMIZRTyAtg2YQ6r-178" value="+Hangar(haID : String)" style="text;strokeColor=none;fillColor=none;align=left;verticalAlign=top;spacingLeft=4;spacingRight=4;overflow=hidden;rotatable=0;points=[[0,0.5],[1,0.5]];portConstraint=eastwest;" vertex="1" parent="-Nn-KrMIZRTyAtg2YQ6r-170">
          <mxGeometry y="175.87946428571428" width="469" height="24" as="geometry" />
        </mxCell>
        <mxCell id="-Nn-KrMIZRTyAtg2YQ6r-179" value="+setHangar_identification(hangar_identification : String) : void" style="text;strokeColor=none;fillColor=none;align=left;verticalAlign=top;spacingLeft=4;spacingRight=4;overflow=hidden;rotatable=0;points=[[0,0.5],[1,0.5]];portConstraint=eastwest;" vertex="1" parent="-Nn-KrMIZRTyAtg2YQ6r-170">
          <mxGeometry y="199.87946428571428" width="469" height="24" as="geometry" />
        </mxCell>
        <mxCell id="-Nn-KrMIZRTyAtg2YQ6r-180" value="+setHangar_size(hangar_size : float) : void" style="text;strokeColor=none;fillColor=none;align=left;verticalAlign=top;spacingLeft=4;spacingRight=4;overflow=hidden;rotatable=0;points=[[0,0.5],[1,0.5]];portConstraint=eastwest;" vertex="1" parent="-Nn-KrMIZRTyAtg2YQ6r-170">
          <mxGeometry y="223.87946428571428" width="469" height="24" as="geometry" />
        </mxCell>
        <mxCell id="-Nn-KrMIZRTyAtg2YQ6r-181" value="+setLagerstandort_id(lagerstandort_id : int) : void" style="text;strokeColor=none;fillColor=none;align=left;verticalAlign=top;spacingLeft=4;spacingRight=4;overflow=hidden;rotatable=0;points=[[0,0.5],[1,0.5]];portConstraint=eastwest;" vertex="1" parent="-Nn-KrMIZRTyAtg2YQ6r-170">
          <mxGeometry y="247.87946428571428" width="469" height="24" as="geometry" />
        </mxCell>
        <mxCell id="-Nn-KrMIZRTyAtg2YQ6r-182" value="+getHangar_identification() : String" style="text;strokeColor=none;fillColor=none;align=left;verticalAlign=top;spacingLeft=4;spacingRight=4;overflow=hidden;rotatable=0;points=[[0,0.5],[1,0.5]];portConstraint=eastwest;" vertex="1" parent="-Nn-KrMIZRTyAtg2YQ6r-170">
          <mxGeometry y="271.8794642857143" width="469" height="24" as="geometry" />
        </mxCell>
        <mxCell id="-Nn-KrMIZRTyAtg2YQ6r-183" value="+getHangar_size() : float" style="text;strokeColor=none;fillColor=none;align=left;verticalAlign=top;spacingLeft=4;spacingRight=4;overflow=hidden;rotatable=0;points=[[0,0.5],[1,0.5]];portConstraint=eastwest;" vertex="1" parent="-Nn-KrMIZRTyAtg2YQ6r-170">
          <mxGeometry y="295.8794642857143" width="469" height="24" as="geometry" />
        </mxCell>
        <mxCell id="-Nn-KrMIZRTyAtg2YQ6r-184" value="+getLagerstandort_id() : int" style="text;strokeColor=none;fillColor=none;align=left;verticalAlign=top;spacingLeft=4;spacingRight=4;overflow=hidden;rotatable=0;points=[[0,0.5],[1,0.5]];portConstraint=eastwest;" vertex="1" parent="-Nn-KrMIZRTyAtg2YQ6r-170">
          <mxGeometry y="319.8794642857143" width="469" height="24" as="geometry" />
        </mxCell>
        <mxCell id="-Nn-KrMIZRTyAtg2YQ6r-185" value="+getAttributes() : String[]" style="text;strokeColor=none;fillColor=none;align=left;verticalAlign=top;spacingLeft=4;spacingRight=4;overflow=hidden;rotatable=0;points=[[0,0.5],[1,0.5]];portConstraint=eastwest;" vertex="1" parent="-Nn-KrMIZRTyAtg2YQ6r-170">
          <mxGeometry y="343.8794642857143" width="469" height="24" as="geometry" />
        </mxCell>
        <mxCell id="-Nn-KrMIZRTyAtg2YQ6r-186" value="+display() : void" style="text;strokeColor=none;fillColor=none;align=left;verticalAlign=top;spacingLeft=4;spacingRight=4;overflow=hidden;rotatable=0;points=[[0,0.5],[1,0.5]];portConstraint=eastwest;" vertex="1" parent="-Nn-KrMIZRTyAtg2YQ6r-170">
          <mxGeometry y="367.8794642857143" width="469" height="24" as="geometry" />
        </mxCell>
        <mxCell id="-Nn-KrMIZRTyAtg2YQ6r-187" value="+checkHangarInitialization(h : Hangar) : boolean" style="text;strokeColor=none;fillColor=none;align=left;verticalAlign=top;spacingLeft=4;spacingRight=4;overflow=hidden;rotatable=0;points=[[0,0.5],[1,0.5]];portConstraint=eastwest;" vertex="1" parent="-Nn-KrMIZRTyAtg2YQ6r-170">
          <mxGeometry y="391.8794642857143" width="469" height="24" as="geometry" />
        </mxCell>
        <mxCell id="-Nn-KrMIZRTyAtg2YQ6r-188" value="+addToDB() : void" style="text;strokeColor=none;fillColor=none;align=left;verticalAlign=top;spacingLeft=4;spacingRight=4;overflow=hidden;rotatable=0;points=[[0,0.5],[1,0.5]];portConstraint=eastwest;" vertex="1" parent="-Nn-KrMIZRTyAtg2YQ6r-170">
          <mxGeometry y="415.8794642857143" width="469" height="24" as="geometry" />
        </mxCell>
        <mxCell id="-Nn-KrMIZRTyAtg2YQ6r-189" value="+getIDfromDB() : int" style="text;strokeColor=none;fillColor=none;align=left;verticalAlign=top;spacingLeft=4;spacingRight=4;overflow=hidden;rotatable=0;points=[[0,0.5],[1,0.5]];portConstraint=eastwest;" vertex="1" parent="-Nn-KrMIZRTyAtg2YQ6r-170">
          <mxGeometry y="439.8794642857143" width="469" height="24" as="geometry" />
        </mxCell>
        <mxCell id="-Nn-KrMIZRTyAtg2YQ6r-190" value="+getHangarNamesFromDB() : List" style="text;strokeColor=none;fillColor=none;align=left;verticalAlign=top;spacingLeft=4;spacingRight=4;overflow=hidden;rotatable=0;points=[[0,0.5],[1,0.5]];portConstraint=eastwest;" vertex="1" parent="-Nn-KrMIZRTyAtg2YQ6r-170">
          <mxGeometry y="463.8794642857143" width="469" height="24" as="geometry" />
        </mxCell>
        <mxCell id="-Nn-KrMIZRTyAtg2YQ6r-191" value="+getHangerIdentificationFromDB(Shelf_ID : int) : String" style="text;strokeColor=none;fillColor=none;align=left;verticalAlign=top;spacingLeft=4;spacingRight=4;overflow=hidden;rotatable=0;points=[[0,0.5],[1,0.5]];portConstraint=eastwest;" vertex="1" parent="-Nn-KrMIZRTyAtg2YQ6r-170">
          <mxGeometry y="487.8794642857143" width="469" height="24" as="geometry" />
        </mxCell>
        <mxCell id="-Nn-KrMIZRTyAtg2YQ6r-192" value="DashboardController" style="swimlane;fontStyle=1;align=center;verticalAlign=top;childLayout=stackLayout;horizontal=1;startSize=23.67375;horizontalStack=0;resizeParent=1;resizeParentMax=0;resizeLast=0;collapsible=0;marginBottom=0;" vertex="1" parent="1">
          <mxGeometry x="-250" y="680" width="380" height="607.6737499999999" as="geometry" />
        </mxCell>
        <mxCell id="-Nn-KrMIZRTyAtg2YQ6r-193" value="-productTableView : TableView" style="text;strokeColor=none;fillColor=none;align=left;verticalAlign=top;spacingLeft=4;spacingRight=4;overflow=hidden;rotatable=0;points=[[0,0.5],[1,0.5]];portConstraint=eastwest;" vertex="1" parent="-Nn-KrMIZRTyAtg2YQ6r-192">
          <mxGeometry y="23.67375" width="380" height="24" as="geometry" />
        </mxCell>
        <mxCell id="-Nn-KrMIZRTyAtg2YQ6r-194" value="-productIDColumn : TableColumn" style="text;strokeColor=none;fillColor=none;align=left;verticalAlign=top;spacingLeft=4;spacingRight=4;overflow=hidden;rotatable=0;points=[[0,0.5],[1,0.5]];portConstraint=eastwest;" vertex="1" parent="-Nn-KrMIZRTyAtg2YQ6r-192">
          <mxGeometry y="47.67375" width="380" height="24" as="geometry" />
        </mxCell>
        <mxCell id="-Nn-KrMIZRTyAtg2YQ6r-195" value="-productNumberColumn : TableColumn" style="text;strokeColor=none;fillColor=none;align=left;verticalAlign=top;spacingLeft=4;spacingRight=4;overflow=hidden;rotatable=0;points=[[0,0.5],[1,0.5]];portConstraint=eastwest;" vertex="1" parent="-Nn-KrMIZRTyAtg2YQ6r-192">
          <mxGeometry y="71.67375" width="380" height="24" as="geometry" />
        </mxCell>
        <mxCell id="-Nn-KrMIZRTyAtg2YQ6r-196" value="-stellplatzIDColumn : TableColumn" style="text;strokeColor=none;fillColor=none;align=left;verticalAlign=top;spacingLeft=4;spacingRight=4;overflow=hidden;rotatable=0;points=[[0,0.5],[1,0.5]];portConstraint=eastwest;" vertex="1" parent="-Nn-KrMIZRTyAtg2YQ6r-192">
          <mxGeometry y="95.67375" width="380" height="24" as="geometry" />
        </mxCell>
        <mxCell id="-Nn-KrMIZRTyAtg2YQ6r-197" value="-amountColumn : TableColumn" style="text;strokeColor=none;fillColor=none;align=left;verticalAlign=top;spacingLeft=4;spacingRight=4;overflow=hidden;rotatable=0;points=[[0,0.5],[1,0.5]];portConstraint=eastwest;" vertex="1" parent="-Nn-KrMIZRTyAtg2YQ6r-192">
          <mxGeometry y="119.67375" width="380" height="24" as="geometry" />
        </mxCell>
        <mxCell id="-Nn-KrMIZRTyAtg2YQ6r-198" value="-productNameColumn : TableColumn" style="text;strokeColor=none;fillColor=none;align=left;verticalAlign=top;spacingLeft=4;spacingRight=4;overflow=hidden;rotatable=0;points=[[0,0.5],[1,0.5]];portConstraint=eastwest;" vertex="1" parent="-Nn-KrMIZRTyAtg2YQ6r-192">
          <mxGeometry y="143.67374999999998" width="380" height="24" as="geometry" />
        </mxCell>
        <mxCell id="-Nn-KrMIZRTyAtg2YQ6r-199" value="-manufacturerColumn : TableColumn" style="text;strokeColor=none;fillColor=none;align=left;verticalAlign=top;spacingLeft=4;spacingRight=4;overflow=hidden;rotatable=0;points=[[0,0.5],[1,0.5]];portConstraint=eastwest;" vertex="1" parent="-Nn-KrMIZRTyAtg2YQ6r-192">
          <mxGeometry y="167.67374999999998" width="380" height="24" as="geometry" />
        </mxCell>
        <mxCell id="-Nn-KrMIZRTyAtg2YQ6r-200" value="-arrivalTimeColumn : TableColumn" style="text;strokeColor=none;fillColor=none;align=left;verticalAlign=top;spacingLeft=4;spacingRight=4;overflow=hidden;rotatable=0;points=[[0,0.5],[1,0.5]];portConstraint=eastwest;" vertex="1" parent="-Nn-KrMIZRTyAtg2YQ6r-192">
          <mxGeometry y="191.67374999999998" width="380" height="24" as="geometry" />
        </mxCell>
        <mxCell id="-Nn-KrMIZRTyAtg2YQ6r-201" value="-searchTextField : TextField" style="text;strokeColor=none;fillColor=none;align=left;verticalAlign=top;spacingLeft=4;spacingRight=4;overflow=hidden;rotatable=0;points=[[0,0.5],[1,0.5]];portConstraint=eastwest;" vertex="1" parent="-Nn-KrMIZRTyAtg2YQ6r-192">
          <mxGeometry y="215.67374999999998" width="380" height="24" as="geometry" />
        </mxCell>
        <mxCell id="-Nn-KrMIZRTyAtg2YQ6r-202" value="-productSearchModelObservableList : ObservableList" style="text;strokeColor=none;fillColor=none;align=left;verticalAlign=top;spacingLeft=4;spacingRight=4;overflow=hidden;rotatable=0;points=[[0,0.5],[1,0.5]];portConstraint=eastwest;" vertex="1" parent="-Nn-KrMIZRTyAtg2YQ6r-192">
          <mxGeometry y="239.67374999999998" width="380" height="24" as="geometry" />
        </mxCell>
        <mxCell id="-Nn-KrMIZRTyAtg2YQ6r-203" value="-editProductStage : Stage" style="text;strokeColor=none;fillColor=none;align=left;verticalAlign=top;spacingLeft=4;spacingRight=4;overflow=hidden;rotatable=0;points=[[0,0.5],[1,0.5]];portConstraint=eastwest;" vertex="1" parent="-Nn-KrMIZRTyAtg2YQ6r-192">
          <mxGeometry y="263.67375" width="380" height="24" as="geometry" />
        </mxCell>
        <mxCell id="-Nn-KrMIZRTyAtg2YQ6r-204" value="-addShelfSpace : Stage" style="text;strokeColor=none;fillColor=none;align=left;verticalAlign=top;spacingLeft=4;spacingRight=4;overflow=hidden;rotatable=0;points=[[0,0.5],[1,0.5]];portConstraint=eastwest;" vertex="1" parent="-Nn-KrMIZRTyAtg2YQ6r-192">
          <mxGeometry y="287.67375" width="380" height="24" as="geometry" />
        </mxCell>
        <mxCell id="-Nn-KrMIZRTyAtg2YQ6r-205" style="line;strokeWidth=1;fillColor=none;align=left;verticalAlign=middle;spacingTop=-1;spacingLeft=3;spacingRight=3;rotatable=0;labelPosition=right;points=[];portConstraint=eastwest;strokeColor=inherit;" vertex="1" parent="-Nn-KrMIZRTyAtg2YQ6r-192">
          <mxGeometry y="311.67375" width="380" height="8" as="geometry" />
        </mxCell>
        <mxCell id="-Nn-KrMIZRTyAtg2YQ6r-206" value="+initialize(url : URL, resource : ResourceBundle) : void" style="text;strokeColor=none;fillColor=none;align=left;verticalAlign=top;spacingLeft=4;spacingRight=4;overflow=hidden;rotatable=0;points=[[0,0.5],[1,0.5]];portConstraint=eastwest;" vertex="1" parent="-Nn-KrMIZRTyAtg2YQ6r-192">
          <mxGeometry y="319.67375" width="380" height="24" as="geometry" />
        </mxCell>
        <mxCell id="-Nn-KrMIZRTyAtg2YQ6r-207" value="+handleEditProductButtonClicked(event : MouseEvent) : void" style="text;strokeColor=none;fillColor=none;align=left;verticalAlign=top;spacingLeft=4;spacingRight=4;overflow=hidden;rotatable=0;points=[[0,0.5],[1,0.5]];portConstraint=eastwest;" vertex="1" parent="-Nn-KrMIZRTyAtg2YQ6r-192">
          <mxGeometry y="343.67375" width="380" height="24" as="geometry" />
        </mxCell>
        <mxCell id="-Nn-KrMIZRTyAtg2YQ6r-208" value="+openEditProductWindow(product : Product) : void" style="text;strokeColor=none;fillColor=none;align=left;verticalAlign=top;spacingLeft=4;spacingRight=4;overflow=hidden;rotatable=0;points=[[0,0.5],[1,0.5]];portConstraint=eastwest;" vertex="1" parent="-Nn-KrMIZRTyAtg2YQ6r-192">
          <mxGeometry y="367.67375" width="380" height="24" as="geometry" />
        </mxCell>
        <mxCell id="-Nn-KrMIZRTyAtg2YQ6r-209" value="+openAddWindow(windowName : String) : void" style="text;strokeColor=none;fillColor=none;align=left;verticalAlign=top;spacingLeft=4;spacingRight=4;overflow=hidden;rotatable=0;points=[[0,0.5],[1,0.5]];portConstraint=eastwest;" vertex="1" parent="-Nn-KrMIZRTyAtg2YQ6r-192">
          <mxGeometry y="391.67375" width="380" height="24" as="geometry" />
        </mxCell>
        <mxCell id="-Nn-KrMIZRTyAtg2YQ6r-210" value="+handleRefreshDataButtonClicked(event : ActionEvent) : void" style="text;strokeColor=none;fillColor=none;align=left;verticalAlign=top;spacingLeft=4;spacingRight=4;overflow=hidden;rotatable=0;points=[[0,0.5],[1,0.5]];portConstraint=eastwest;" vertex="1" parent="-Nn-KrMIZRTyAtg2YQ6r-192">
          <mxGeometry y="415.67375" width="380" height="24" as="geometry" />
        </mxCell>
        <mxCell id="-Nn-KrMIZRTyAtg2YQ6r-211" value="+updateTableData() : void" style="text;strokeColor=none;fillColor=none;align=left;verticalAlign=top;spacingLeft=4;spacingRight=4;overflow=hidden;rotatable=0;points=[[0,0.5],[1,0.5]];portConstraint=eastwest;" vertex="1" parent="-Nn-KrMIZRTyAtg2YQ6r-192">
          <mxGeometry y="439.67375" width="380" height="24" as="geometry" />
        </mxCell>
        <mxCell id="-Nn-KrMIZRTyAtg2YQ6r-212" value="+handleDeleteProductButtonClicked(event : MouseEvent) : void" style="text;strokeColor=none;fillColor=none;align=left;verticalAlign=top;spacingLeft=4;spacingRight=4;overflow=hidden;rotatable=0;points=[[0,0.5],[1,0.5]];portConstraint=eastwest;" vertex="1" parent="-Nn-KrMIZRTyAtg2YQ6r-192">
          <mxGeometry y="463.67375" width="380" height="24" as="geometry" />
        </mxCell>
        <mxCell id="-Nn-KrMIZRTyAtg2YQ6r-213" value="+handleAddHangarButtonClicked(event : MouseEvent) : void" style="text;strokeColor=none;fillColor=none;align=left;verticalAlign=top;spacingLeft=4;spacingRight=4;overflow=hidden;rotatable=0;points=[[0,0.5],[1,0.5]];portConstraint=eastwest;" vertex="1" parent="-Nn-KrMIZRTyAtg2YQ6r-192">
          <mxGeometry y="487.67375" width="380" height="24" as="geometry" />
        </mxCell>
        <mxCell id="-Nn-KrMIZRTyAtg2YQ6r-214" value="+handleAddShelfButtonClicked(event : MouseEvent) : void" style="text;strokeColor=none;fillColor=none;align=left;verticalAlign=top;spacingLeft=4;spacingRight=4;overflow=hidden;rotatable=0;points=[[0,0.5],[1,0.5]];portConstraint=eastwest;" vertex="1" parent="-Nn-KrMIZRTyAtg2YQ6r-192">
          <mxGeometry y="511.67375" width="380" height="24" as="geometry" />
        </mxCell>
        <mxCell id="-Nn-KrMIZRTyAtg2YQ6r-215" value="+handleAddProductButtonClicked(event : MouseEvent) : void" style="text;strokeColor=none;fillColor=none;align=left;verticalAlign=top;spacingLeft=4;spacingRight=4;overflow=hidden;rotatable=0;points=[[0,0.5],[1,0.5]];portConstraint=eastwest;" vertex="1" parent="-Nn-KrMIZRTyAtg2YQ6r-192">
          <mxGeometry y="535.6737499999999" width="380" height="24" as="geometry" />
        </mxCell>
        <mxCell id="-Nn-KrMIZRTyAtg2YQ6r-216" value="+handleProductTableViewMouseClicked(event : MouseEvent) : void" style="text;strokeColor=none;fillColor=none;align=left;verticalAlign=top;spacingLeft=4;spacingRight=4;overflow=hidden;rotatable=0;points=[[0,0.5],[1,0.5]];portConstraint=eastwest;" vertex="1" parent="-Nn-KrMIZRTyAtg2YQ6r-192">
          <mxGeometry y="559.6737499999999" width="380" height="24" as="geometry" />
        </mxCell>
        <mxCell id="-Nn-KrMIZRTyAtg2YQ6r-217" value="+showDetailedView(selectedProduct : Product) : void" style="text;strokeColor=none;fillColor=none;align=left;verticalAlign=top;spacingLeft=4;spacingRight=4;overflow=hidden;rotatable=0;points=[[0,0.5],[1,0.5]];portConstraint=eastwest;" vertex="1" parent="-Nn-KrMIZRTyAtg2YQ6r-192">
          <mxGeometry y="583.6737499999999" width="380" height="24" as="geometry" />
        </mxCell>
        <mxCell id="-Nn-KrMIZRTyAtg2YQ6r-218" value="Product" style="swimlane;fontStyle=1;align=center;verticalAlign=top;childLayout=stackLayout;horizontal=1;startSize=23.387867647058822;horizontalStack=0;resizeParent=1;resizeParentMax=0;resizeLast=0;collapsible=0;marginBottom=0;" vertex="1" parent="1">
          <mxGeometry x="250" y="1450" width="820" height="790.3878676470588" as="geometry" />
        </mxCell>
        <mxCell id="-Nn-KrMIZRTyAtg2YQ6r-219" value="-productID : int" style="text;strokeColor=none;fillColor=none;align=left;verticalAlign=top;spacingLeft=4;spacingRight=4;overflow=hidden;rotatable=0;points=[[0,0.5],[1,0.5]];portConstraint=eastwest;" vertex="1" parent="-Nn-KrMIZRTyAtg2YQ6r-218">
          <mxGeometry y="23.387867647058822" width="820" height="23" as="geometry" />
        </mxCell>
        <mxCell id="-Nn-KrMIZRTyAtg2YQ6r-220" value="-amount : int" style="text;strokeColor=none;fillColor=none;align=left;verticalAlign=top;spacingLeft=4;spacingRight=4;overflow=hidden;rotatable=0;points=[[0,0.5],[1,0.5]];portConstraint=eastwest;" vertex="1" parent="-Nn-KrMIZRTyAtg2YQ6r-218">
          <mxGeometry y="46.387867647058826" width="820" height="23" as="geometry" />
        </mxCell>
        <mxCell id="-Nn-KrMIZRTyAtg2YQ6r-221" value="-shelfSpace_ID : int" style="text;strokeColor=none;fillColor=none;align=left;verticalAlign=top;spacingLeft=4;spacingRight=4;overflow=hidden;rotatable=0;points=[[0,0.5],[1,0.5]];portConstraint=eastwest;" vertex="1" parent="-Nn-KrMIZRTyAtg2YQ6r-218">
          <mxGeometry y="69.38786764705883" width="820" height="23" as="geometry" />
        </mxCell>
        <mxCell id="-Nn-KrMIZRTyAtg2YQ6r-222" value="-productNumber : String" style="text;strokeColor=none;fillColor=none;align=left;verticalAlign=top;spacingLeft=4;spacingRight=4;overflow=hidden;rotatable=0;points=[[0,0.5],[1,0.5]];portConstraint=eastwest;" vertex="1" parent="-Nn-KrMIZRTyAtg2YQ6r-218">
          <mxGeometry y="92.38786764705883" width="820" height="23" as="geometry" />
        </mxCell>
        <mxCell id="-Nn-KrMIZRTyAtg2YQ6r-223" value="-productName : String" style="text;strokeColor=none;fillColor=none;align=left;verticalAlign=top;spacingLeft=4;spacingRight=4;overflow=hidden;rotatable=0;points=[[0,0.5],[1,0.5]];portConstraint=eastwest;" vertex="1" parent="-Nn-KrMIZRTyAtg2YQ6r-218">
          <mxGeometry y="115.38786764705883" width="820" height="23" as="geometry" />
        </mxCell>
        <mxCell id="-Nn-KrMIZRTyAtg2YQ6r-224" value="-manufacturer : String" style="text;strokeColor=none;fillColor=none;align=left;verticalAlign=top;spacingLeft=4;spacingRight=4;overflow=hidden;rotatable=0;points=[[0,0.5],[1,0.5]];portConstraint=eastwest;" vertex="1" parent="-Nn-KrMIZRTyAtg2YQ6r-218">
          <mxGeometry y="138.38786764705884" width="820" height="23" as="geometry" />
        </mxCell>
        <mxCell id="-Nn-KrMIZRTyAtg2YQ6r-225" value="-shelfSpace_Identification : String" style="text;strokeColor=none;fillColor=none;align=left;verticalAlign=top;spacingLeft=4;spacingRight=4;overflow=hidden;rotatable=0;points=[[0,0.5],[1,0.5]];portConstraint=eastwest;" vertex="1" parent="-Nn-KrMIZRTyAtg2YQ6r-218">
          <mxGeometry y="161.38786764705884" width="820" height="23" as="geometry" />
        </mxCell>
        <mxCell id="-Nn-KrMIZRTyAtg2YQ6r-226" value="-stellplatzID : String" style="text;strokeColor=none;fillColor=none;align=left;verticalAlign=top;spacingLeft=4;spacingRight=4;overflow=hidden;rotatable=0;points=[[0,0.5],[1,0.5]];portConstraint=eastwest;" vertex="1" parent="-Nn-KrMIZRTyAtg2YQ6r-218">
          <mxGeometry y="184.38786764705884" width="820" height="23" as="geometry" />
        </mxCell>
        <mxCell id="-Nn-KrMIZRTyAtg2YQ6r-227" value="-arrivalTime : String" style="text;strokeColor=none;fillColor=none;align=left;verticalAlign=top;spacingLeft=4;spacingRight=4;overflow=hidden;rotatable=0;points=[[0,0.5],[1,0.5]];portConstraint=eastwest;" vertex="1" parent="-Nn-KrMIZRTyAtg2YQ6r-218">
          <mxGeometry y="207.38786764705884" width="820" height="23" as="geometry" />
        </mxCell>
        <mxCell id="-Nn-KrMIZRTyAtg2YQ6r-228" style="line;strokeWidth=1;fillColor=none;align=left;verticalAlign=middle;spacingTop=-1;spacingLeft=3;spacingRight=3;rotatable=0;labelPosition=right;points=[];portConstraint=eastwest;strokeColor=inherit;" vertex="1" parent="-Nn-KrMIZRTyAtg2YQ6r-218">
          <mxGeometry y="230.38786764705884" width="820" height="8" as="geometry" />
        </mxCell>
        <mxCell id="-Nn-KrMIZRTyAtg2YQ6r-229" value="+Product(productID : Integer, productNumber : String, stellplatzID : String, amount : int, productName : String, manufacturer : String, arrivalTime : String)" style="text;strokeColor=none;fillColor=none;align=left;verticalAlign=top;spacingLeft=4;spacingRight=4;overflow=hidden;rotatable=0;points=[[0,0.5],[1,0.5]];portConstraint=eastwest;" vertex="1" parent="-Nn-KrMIZRTyAtg2YQ6r-218">
          <mxGeometry y="238.38786764705884" width="820" height="23" as="geometry" />
        </mxCell>
        <mxCell id="-Nn-KrMIZRTyAtg2YQ6r-230" value="+Product(amount : int, productNumber : String, shelfSpace_ID : int, productName : String, manufacturer : String)" style="text;strokeColor=none;fillColor=none;align=left;verticalAlign=top;spacingLeft=4;spacingRight=4;overflow=hidden;rotatable=0;points=[[0,0.5],[1,0.5]];portConstraint=eastwest;" vertex="1" parent="-Nn-KrMIZRTyAtg2YQ6r-218">
          <mxGeometry y="261.38786764705884" width="820" height="23" as="geometry" />
        </mxCell>
        <mxCell id="-Nn-KrMIZRTyAtg2YQ6r-231" value="+getStellplatzID() : String" style="text;strokeColor=none;fillColor=none;align=left;verticalAlign=top;spacingLeft=4;spacingRight=4;overflow=hidden;rotatable=0;points=[[0,0.5],[1,0.5]];portConstraint=eastwest;" vertex="1" parent="-Nn-KrMIZRTyAtg2YQ6r-218">
          <mxGeometry y="284.38786764705884" width="820" height="23" as="geometry" />
        </mxCell>
        <mxCell id="-Nn-KrMIZRTyAtg2YQ6r-232" value="+setStellplatzID(stellplatzID : String) : void" style="text;strokeColor=none;fillColor=none;align=left;verticalAlign=top;spacingLeft=4;spacingRight=4;overflow=hidden;rotatable=0;points=[[0,0.5],[1,0.5]];portConstraint=eastwest;" vertex="1" parent="-Nn-KrMIZRTyAtg2YQ6r-218">
          <mxGeometry y="307.38786764705884" width="820" height="23" as="geometry" />
        </mxCell>
        <mxCell id="-Nn-KrMIZRTyAtg2YQ6r-233" value="+getArrivalTime() : String" style="text;strokeColor=none;fillColor=none;align=left;verticalAlign=top;spacingLeft=4;spacingRight=4;overflow=hidden;rotatable=0;points=[[0,0.5],[1,0.5]];portConstraint=eastwest;" vertex="1" parent="-Nn-KrMIZRTyAtg2YQ6r-218">
          <mxGeometry y="330.38786764705884" width="820" height="23" as="geometry" />
        </mxCell>
        <mxCell id="-Nn-KrMIZRTyAtg2YQ6r-234" value="+getAmount() : Integer" style="text;strokeColor=none;fillColor=none;align=left;verticalAlign=top;spacingLeft=4;spacingRight=4;overflow=hidden;rotatable=0;points=[[0,0.5],[1,0.5]];portConstraint=eastwest;" vertex="1" parent="-Nn-KrMIZRTyAtg2YQ6r-218">
          <mxGeometry y="353.38786764705884" width="820" height="23" as="geometry" />
        </mxCell>
        <mxCell id="-Nn-KrMIZRTyAtg2YQ6r-235" value="+setAmount(amount : int) : void" style="text;strokeColor=none;fillColor=none;align=left;verticalAlign=top;spacingLeft=4;spacingRight=4;overflow=hidden;rotatable=0;points=[[0,0.5],[1,0.5]];portConstraint=eastwest;" vertex="1" parent="-Nn-KrMIZRTyAtg2YQ6r-218">
          <mxGeometry y="376.38786764705884" width="820" height="23" as="geometry" />
        </mxCell>
        <mxCell id="-Nn-KrMIZRTyAtg2YQ6r-236" value="+getProductNumber() : String" style="text;strokeColor=none;fillColor=none;align=left;verticalAlign=top;spacingLeft=4;spacingRight=4;overflow=hidden;rotatable=0;points=[[0,0.5],[1,0.5]];portConstraint=eastwest;" vertex="1" parent="-Nn-KrMIZRTyAtg2YQ6r-218">
          <mxGeometry y="399.38786764705884" width="820" height="23" as="geometry" />
        </mxCell>
        <mxCell id="-Nn-KrMIZRTyAtg2YQ6r-237" value="+setProductNumber(productNumber : String) : void" style="text;strokeColor=none;fillColor=none;align=left;verticalAlign=top;spacingLeft=4;spacingRight=4;overflow=hidden;rotatable=0;points=[[0,0.5],[1,0.5]];portConstraint=eastwest;" vertex="1" parent="-Nn-KrMIZRTyAtg2YQ6r-218">
          <mxGeometry y="422.38786764705884" width="820" height="23" as="geometry" />
        </mxCell>
        <mxCell id="-Nn-KrMIZRTyAtg2YQ6r-238" value="+getshelfSpace_ID() : int" style="text;strokeColor=none;fillColor=none;align=left;verticalAlign=top;spacingLeft=4;spacingRight=4;overflow=hidden;rotatable=0;points=[[0,0.5],[1,0.5]];portConstraint=eastwest;" vertex="1" parent="-Nn-KrMIZRTyAtg2YQ6r-218">
          <mxGeometry y="445.38786764705884" width="820" height="23" as="geometry" />
        </mxCell>
        <mxCell id="-Nn-KrMIZRTyAtg2YQ6r-239" value="+setshelfSpace_ID(shelfSpace_ID : int) : void" style="text;strokeColor=none;fillColor=none;align=left;verticalAlign=top;spacingLeft=4;spacingRight=4;overflow=hidden;rotatable=0;points=[[0,0.5],[1,0.5]];portConstraint=eastwest;" vertex="1" parent="-Nn-KrMIZRTyAtg2YQ6r-218">
          <mxGeometry y="468.38786764705884" width="820" height="23" as="geometry" />
        </mxCell>
        <mxCell id="-Nn-KrMIZRTyAtg2YQ6r-240" value="+getProductName() : String" style="text;strokeColor=none;fillColor=none;align=left;verticalAlign=top;spacingLeft=4;spacingRight=4;overflow=hidden;rotatable=0;points=[[0,0.5],[1,0.5]];portConstraint=eastwest;" vertex="1" parent="-Nn-KrMIZRTyAtg2YQ6r-218">
          <mxGeometry y="491.38786764705884" width="820" height="23" as="geometry" />
        </mxCell>
        <mxCell id="-Nn-KrMIZRTyAtg2YQ6r-241" value="+setProductName(productName : String) : void" style="text;strokeColor=none;fillColor=none;align=left;verticalAlign=top;spacingLeft=4;spacingRight=4;overflow=hidden;rotatable=0;points=[[0,0.5],[1,0.5]];portConstraint=eastwest;" vertex="1" parent="-Nn-KrMIZRTyAtg2YQ6r-218">
          <mxGeometry y="514.3878676470588" width="820" height="23" as="geometry" />
        </mxCell>
        <mxCell id="-Nn-KrMIZRTyAtg2YQ6r-242" value="+getManufacturer() : String" style="text;strokeColor=none;fillColor=none;align=left;verticalAlign=top;spacingLeft=4;spacingRight=4;overflow=hidden;rotatable=0;points=[[0,0.5],[1,0.5]];portConstraint=eastwest;" vertex="1" parent="-Nn-KrMIZRTyAtg2YQ6r-218">
          <mxGeometry y="537.3878676470588" width="820" height="23" as="geometry" />
        </mxCell>
        <mxCell id="-Nn-KrMIZRTyAtg2YQ6r-243" value="+setManufacturer(manufacturer : String) : void" style="text;strokeColor=none;fillColor=none;align=left;verticalAlign=top;spacingLeft=4;spacingRight=4;overflow=hidden;rotatable=0;points=[[0,0.5],[1,0.5]];portConstraint=eastwest;" vertex="1" parent="-Nn-KrMIZRTyAtg2YQ6r-218">
          <mxGeometry y="560.3878676470588" width="820" height="23" as="geometry" />
        </mxCell>
        <mxCell id="-Nn-KrMIZRTyAtg2YQ6r-244" value="+getProductID() : int" style="text;strokeColor=none;fillColor=none;align=left;verticalAlign=top;spacingLeft=4;spacingRight=4;overflow=hidden;rotatable=0;points=[[0,0.5],[1,0.5]];portConstraint=eastwest;" vertex="1" parent="-Nn-KrMIZRTyAtg2YQ6r-218">
          <mxGeometry y="583.3878676470588" width="820" height="23" as="geometry" />
        </mxCell>
        <mxCell id="-Nn-KrMIZRTyAtg2YQ6r-245" value="+getShelfSpace_Identification() : String" style="text;strokeColor=none;fillColor=none;align=left;verticalAlign=top;spacingLeft=4;spacingRight=4;overflow=hidden;rotatable=0;points=[[0,0.5],[1,0.5]];portConstraint=eastwest;" vertex="1" parent="-Nn-KrMIZRTyAtg2YQ6r-218">
          <mxGeometry y="606.3878676470588" width="820" height="23" as="geometry" />
        </mxCell>
        <mxCell id="-Nn-KrMIZRTyAtg2YQ6r-246" value="+setShelfSpace_Identification(shelfSpace_Identification : String) : void" style="text;strokeColor=none;fillColor=none;align=left;verticalAlign=top;spacingLeft=4;spacingRight=4;overflow=hidden;rotatable=0;points=[[0,0.5],[1,0.5]];portConstraint=eastwest;" vertex="1" parent="-Nn-KrMIZRTyAtg2YQ6r-218">
          <mxGeometry y="629.3878676470588" width="820" height="23" as="geometry" />
        </mxCell>
        <mxCell id="-Nn-KrMIZRTyAtg2YQ6r-247" value="+setProductID(pID : int) : void" style="text;strokeColor=none;fillColor=none;align=left;verticalAlign=top;spacingLeft=4;spacingRight=4;overflow=hidden;rotatable=0;points=[[0,0.5],[1,0.5]];portConstraint=eastwest;" vertex="1" parent="-Nn-KrMIZRTyAtg2YQ6r-218">
          <mxGeometry y="652.3878676470588" width="820" height="23" as="geometry" />
        </mxCell>
        <mxCell id="-Nn-KrMIZRTyAtg2YQ6r-248" value="+delete(productID : int) : void" style="text;strokeColor=none;fillColor=none;align=left;verticalAlign=top;spacingLeft=4;spacingRight=4;overflow=hidden;rotatable=0;points=[[0,0.5],[1,0.5]];portConstraint=eastwest;" vertex="1" parent="-Nn-KrMIZRTyAtg2YQ6r-218">
          <mxGeometry y="675.3878676470588" width="820" height="23" as="geometry" />
        </mxCell>
        <mxCell id="-Nn-KrMIZRTyAtg2YQ6r-249" value="+update() : void" style="text;strokeColor=none;fillColor=none;align=left;verticalAlign=top;spacingLeft=4;spacingRight=4;overflow=hidden;rotatable=0;points=[[0,0.5],[1,0.5]];portConstraint=eastwest;" vertex="1" parent="-Nn-KrMIZRTyAtg2YQ6r-218">
          <mxGeometry y="698.3878676470588" width="820" height="23" as="geometry" />
        </mxCell>
        <mxCell id="-Nn-KrMIZRTyAtg2YQ6r-250" value="+addToDB() : void" style="text;strokeColor=none;fillColor=none;align=left;verticalAlign=top;spacingLeft=4;spacingRight=4;overflow=hidden;rotatable=0;points=[[0,0.5],[1,0.5]];portConstraint=eastwest;" vertex="1" parent="-Nn-KrMIZRTyAtg2YQ6r-218">
          <mxGeometry y="721.3878676470588" width="820" height="23" as="geometry" />
        </mxCell>
        <mxCell id="-Nn-KrMIZRTyAtg2YQ6r-251" value="+setShelfSpace_Identification(shelfSpace_ID : int) : void" style="text;strokeColor=none;fillColor=none;align=left;verticalAlign=top;spacingLeft=4;spacingRight=4;overflow=hidden;rotatable=0;points=[[0,0.5],[1,0.5]];portConstraint=eastwest;" vertex="1" parent="-Nn-KrMIZRTyAtg2YQ6r-218">
          <mxGeometry y="744.3878676470588" width="820" height="23" as="geometry" />
        </mxCell>
        <mxCell id="-Nn-KrMIZRTyAtg2YQ6r-252" value="+getShelfSpaces(regalID : int) : List" style="text;strokeColor=none;fillColor=none;align=left;verticalAlign=top;spacingLeft=4;spacingRight=4;overflow=hidden;rotatable=0;points=[[0,0.5],[1,0.5]];portConstraint=eastwest;" vertex="1" parent="-Nn-KrMIZRTyAtg2YQ6r-218">
          <mxGeometry y="767.3878676470588" width="820" height="23" as="geometry" />
        </mxCell>
        <mxCell id="-Nn-KrMIZRTyAtg2YQ6r-253" value="Shelf" style="swimlane;fontStyle=1;align=center;verticalAlign=top;childLayout=stackLayout;horizontal=1;startSize=23.252286585365855;horizontalStack=0;resizeParent=1;resizeParentMax=0;resizeLast=0;collapsible=0;marginBottom=0;" vertex="1" parent="1">
          <mxGeometry x="1120" y="1450" width="640" height="951.2522865853658" as="geometry" />
        </mxCell>
        <mxCell id="-Nn-KrMIZRTyAtg2YQ6r-254" value="-id : int" style="text;strokeColor=none;fillColor=none;align=left;verticalAlign=top;spacingLeft=4;spacingRight=4;overflow=hidden;rotatable=0;points=[[0,0.5],[1,0.5]];portConstraint=eastwest;" vertex="1" parent="-Nn-KrMIZRTyAtg2YQ6r-253">
          <mxGeometry y="23.252286585365855" width="640" height="23" as="geometry" />
        </mxCell>
        <mxCell id="-Nn-KrMIZRTyAtg2YQ6r-255" value="-id_hangar : int" style="text;strokeColor=none;fillColor=none;align=left;verticalAlign=top;spacingLeft=4;spacingRight=4;overflow=hidden;rotatable=0;points=[[0,0.5],[1,0.5]];portConstraint=eastwest;" vertex="1" parent="-Nn-KrMIZRTyAtg2YQ6r-253">
          <mxGeometry y="46.25228658536585" width="640" height="23" as="geometry" />
        </mxCell>
        <mxCell id="-Nn-KrMIZRTyAtg2YQ6r-256" value="-shelfIdentification : String" style="text;strokeColor=none;fillColor=none;align=left;verticalAlign=top;spacingLeft=4;spacingRight=4;overflow=hidden;rotatable=0;points=[[0,0.5],[1,0.5]];portConstraint=eastwest;" vertex="1" parent="-Nn-KrMIZRTyAtg2YQ6r-253">
          <mxGeometry y="69.25228658536585" width="640" height="23" as="geometry" />
        </mxCell>
        <mxCell id="-Nn-KrMIZRTyAtg2YQ6r-257" value="-shelfCatagory : String" style="text;strokeColor=none;fillColor=none;align=left;verticalAlign=top;spacingLeft=4;spacingRight=4;overflow=hidden;rotatable=0;points=[[0,0.5],[1,0.5]];portConstraint=eastwest;" vertex="1" parent="-Nn-KrMIZRTyAtg2YQ6r-253">
          <mxGeometry y="92.25228658536585" width="640" height="23" as="geometry" />
        </mxCell>
        <mxCell id="-Nn-KrMIZRTyAtg2YQ6r-258" value="-shelfCapacity : int" style="text;strokeColor=none;fillColor=none;align=left;verticalAlign=top;spacingLeft=4;spacingRight=4;overflow=hidden;rotatable=0;points=[[0,0.5],[1,0.5]];portConstraint=eastwest;" vertex="1" parent="-Nn-KrMIZRTyAtg2YQ6r-253">
          <mxGeometry y="115.25228658536585" width="640" height="23" as="geometry" />
        </mxCell>
        <mxCell id="-Nn-KrMIZRTyAtg2YQ6r-259" value="-usedCapacity : String" style="text;strokeColor=none;fillColor=none;align=left;verticalAlign=top;spacingLeft=4;spacingRight=4;overflow=hidden;rotatable=0;points=[[0,0.5],[1,0.5]];portConstraint=eastwest;" vertex="1" parent="-Nn-KrMIZRTyAtg2YQ6r-253">
          <mxGeometry y="138.25228658536585" width="640" height="23" as="geometry" />
        </mxCell>
        <mxCell id="-Nn-KrMIZRTyAtg2YQ6r-260" value="-shelfType : String" style="text;strokeColor=none;fillColor=none;align=left;verticalAlign=top;spacingLeft=4;spacingRight=4;overflow=hidden;rotatable=0;points=[[0,0.5],[1,0.5]];portConstraint=eastwest;" vertex="1" parent="-Nn-KrMIZRTyAtg2YQ6r-253">
          <mxGeometry y="161.25228658536585" width="640" height="23" as="geometry" />
        </mxCell>
        <mxCell id="-Nn-KrMIZRTyAtg2YQ6r-261" value="-shelfCondition : String" style="text;strokeColor=none;fillColor=none;align=left;verticalAlign=top;spacingLeft=4;spacingRight=4;overflow=hidden;rotatable=0;points=[[0,0.5],[1,0.5]];portConstraint=eastwest;" vertex="1" parent="-Nn-KrMIZRTyAtg2YQ6r-253">
          <mxGeometry y="184.25228658536585" width="640" height="23" as="geometry" />
        </mxCell>
        <mxCell id="-Nn-KrMIZRTyAtg2YQ6r-262" value="-objectInstance : Shelf" style="text;strokeColor=none;fillColor=none;align=left;verticalAlign=top;spacingLeft=4;spacingRight=4;overflow=hidden;rotatable=0;points=[[0,0.5],[1,0.5]];portConstraint=eastwest;" vertex="1" parent="-Nn-KrMIZRTyAtg2YQ6r-253">
          <mxGeometry y="207.25228658536585" width="640" height="23" as="geometry" />
        </mxCell>
        <mxCell id="-Nn-KrMIZRTyAtg2YQ6r-263" value="-attributes : String[]" style="text;strokeColor=none;fillColor=none;align=left;verticalAlign=top;spacingLeft=4;spacingRight=4;overflow=hidden;rotatable=0;points=[[0,0.5],[1,0.5]];portConstraint=eastwest;" vertex="1" parent="-Nn-KrMIZRTyAtg2YQ6r-253">
          <mxGeometry y="230.25228658536585" width="640" height="23" as="geometry" />
        </mxCell>
        <mxCell id="-Nn-KrMIZRTyAtg2YQ6r-264" style="line;strokeWidth=1;fillColor=none;align=left;verticalAlign=middle;spacingTop=-1;spacingLeft=3;spacingRight=3;rotatable=0;labelPosition=right;points=[];portConstraint=eastwest;strokeColor=inherit;" vertex="1" parent="-Nn-KrMIZRTyAtg2YQ6r-253">
          <mxGeometry y="253.25228658536585" width="640" height="8" as="geometry" />
        </mxCell>
        <mxCell id="-Nn-KrMIZRTyAtg2YQ6r-265" value="+Shelf(data : String[])" style="text;strokeColor=none;fillColor=none;align=left;verticalAlign=top;spacingLeft=4;spacingRight=4;overflow=hidden;rotatable=0;points=[[0,0.5],[1,0.5]];portConstraint=eastwest;" vertex="1" parent="-Nn-KrMIZRTyAtg2YQ6r-253">
          <mxGeometry y="261.2522865853658" width="640" height="23" as="geometry" />
        </mxCell>
        <mxCell id="-Nn-KrMIZRTyAtg2YQ6r-266" value="+Shelf(iDHan : int, shIde : String, maCap : int, shTyp : String, shCat : String)" style="text;strokeColor=none;fillColor=none;align=left;verticalAlign=top;spacingLeft=4;spacingRight=4;overflow=hidden;rotatable=0;points=[[0,0.5],[1,0.5]];portConstraint=eastwest;" vertex="1" parent="-Nn-KrMIZRTyAtg2YQ6r-253">
          <mxGeometry y="284.2522865853658" width="640" height="23" as="geometry" />
        </mxCell>
        <mxCell id="-Nn-KrMIZRTyAtg2YQ6r-267" value="+Shelf(shIde : String)" style="text;strokeColor=none;fillColor=none;align=left;verticalAlign=top;spacingLeft=4;spacingRight=4;overflow=hidden;rotatable=0;points=[[0,0.5],[1,0.5]];portConstraint=eastwest;" vertex="1" parent="-Nn-KrMIZRTyAtg2YQ6r-253">
          <mxGeometry y="307.2522865853658" width="640" height="23" as="geometry" />
        </mxCell>
        <mxCell id="-Nn-KrMIZRTyAtg2YQ6r-268" value="+Shelf()" style="text;strokeColor=none;fillColor=none;align=left;verticalAlign=top;spacingLeft=4;spacingRight=4;overflow=hidden;rotatable=0;points=[[0,0.5],[1,0.5]];portConstraint=eastwest;" vertex="1" parent="-Nn-KrMIZRTyAtg2YQ6r-253">
          <mxGeometry y="330.2522865853658" width="640" height="23" as="geometry" />
        </mxCell>
        <mxCell id="-Nn-KrMIZRTyAtg2YQ6r-269" value="+setIdHangar(id : int) : void" style="text;strokeColor=none;fillColor=none;align=left;verticalAlign=top;spacingLeft=4;spacingRight=4;overflow=hidden;rotatable=0;points=[[0,0.5],[1,0.5]];portConstraint=eastwest;" vertex="1" parent="-Nn-KrMIZRTyAtg2YQ6r-253">
          <mxGeometry y="353.2522865853658" width="640" height="23" as="geometry" />
        </mxCell>
        <mxCell id="-Nn-KrMIZRTyAtg2YQ6r-270" value="+setShelfIdentification(shelfIdentification : String) : void" style="text;strokeColor=none;fillColor=none;align=left;verticalAlign=top;spacingLeft=4;spacingRight=4;overflow=hidden;rotatable=0;points=[[0,0.5],[1,0.5]];portConstraint=eastwest;" vertex="1" parent="-Nn-KrMIZRTyAtg2YQ6r-253">
          <mxGeometry y="376.2522865853658" width="640" height="23" as="geometry" />
        </mxCell>
        <mxCell id="-Nn-KrMIZRTyAtg2YQ6r-271" value="+setShelfCatagory(shelfCatagory : String) : void" style="text;strokeColor=none;fillColor=none;align=left;verticalAlign=top;spacingLeft=4;spacingRight=4;overflow=hidden;rotatable=0;points=[[0,0.5],[1,0.5]];portConstraint=eastwest;" vertex="1" parent="-Nn-KrMIZRTyAtg2YQ6r-253">
          <mxGeometry y="399.2522865853658" width="640" height="23" as="geometry" />
        </mxCell>
        <mxCell id="-Nn-KrMIZRTyAtg2YQ6r-272" value="+sethelfCapacity(shelfCapacity : int) : void" style="text;strokeColor=none;fillColor=none;align=left;verticalAlign=top;spacingLeft=4;spacingRight=4;overflow=hidden;rotatable=0;points=[[0,0.5],[1,0.5]];portConstraint=eastwest;" vertex="1" parent="-Nn-KrMIZRTyAtg2YQ6r-253">
          <mxGeometry y="422.2522865853658" width="640" height="23" as="geometry" />
        </mxCell>
        <mxCell id="-Nn-KrMIZRTyAtg2YQ6r-273" value="+setUsedCapacity(occupiedCapacity : String) : void" style="text;strokeColor=none;fillColor=none;align=left;verticalAlign=top;spacingLeft=4;spacingRight=4;overflow=hidden;rotatable=0;points=[[0,0.5],[1,0.5]];portConstraint=eastwest;" vertex="1" parent="-Nn-KrMIZRTyAtg2YQ6r-253">
          <mxGeometry y="445.2522865853658" width="640" height="23" as="geometry" />
        </mxCell>
        <mxCell id="-Nn-KrMIZRTyAtg2YQ6r-274" value="+setShelfType(shelfType : String) : void" style="text;strokeColor=none;fillColor=none;align=left;verticalAlign=top;spacingLeft=4;spacingRight=4;overflow=hidden;rotatable=0;points=[[0,0.5],[1,0.5]];portConstraint=eastwest;" vertex="1" parent="-Nn-KrMIZRTyAtg2YQ6r-253">
          <mxGeometry y="468.2522865853658" width="640" height="23" as="geometry" />
        </mxCell>
        <mxCell id="-Nn-KrMIZRTyAtg2YQ6r-275" value="+setShelfCondition(shelfCondition : String) : void" style="text;strokeColor=none;fillColor=none;align=left;verticalAlign=top;spacingLeft=4;spacingRight=4;overflow=hidden;rotatable=0;points=[[0,0.5],[1,0.5]];portConstraint=eastwest;" vertex="1" parent="-Nn-KrMIZRTyAtg2YQ6r-253">
          <mxGeometry y="491.2522865853658" width="640" height="23" as="geometry" />
        </mxCell>
        <mxCell id="-Nn-KrMIZRTyAtg2YQ6r-276" value="+getIdHangar() : int" style="text;strokeColor=none;fillColor=none;align=left;verticalAlign=top;spacingLeft=4;spacingRight=4;overflow=hidden;rotatable=0;points=[[0,0.5],[1,0.5]];portConstraint=eastwest;" vertex="1" parent="-Nn-KrMIZRTyAtg2YQ6r-253">
          <mxGeometry y="514.2522865853658" width="640" height="23" as="geometry" />
        </mxCell>
        <mxCell id="-Nn-KrMIZRTyAtg2YQ6r-277" value="+getShelfIdentification() : String" style="text;strokeColor=none;fillColor=none;align=left;verticalAlign=top;spacingLeft=4;spacingRight=4;overflow=hidden;rotatable=0;points=[[0,0.5],[1,0.5]];portConstraint=eastwest;" vertex="1" parent="-Nn-KrMIZRTyAtg2YQ6r-253">
          <mxGeometry y="537.2522865853658" width="640" height="23" as="geometry" />
        </mxCell>
        <mxCell id="-Nn-KrMIZRTyAtg2YQ6r-278" value="+getShelfCatagory() : String" style="text;strokeColor=none;fillColor=none;align=left;verticalAlign=top;spacingLeft=4;spacingRight=4;overflow=hidden;rotatable=0;points=[[0,0.5],[1,0.5]];portConstraint=eastwest;" vertex="1" parent="-Nn-KrMIZRTyAtg2YQ6r-253">
          <mxGeometry y="560.2522865853658" width="640" height="23" as="geometry" />
        </mxCell>
        <mxCell id="-Nn-KrMIZRTyAtg2YQ6r-279" value="+getShelfCapacity() : int" style="text;strokeColor=none;fillColor=none;align=left;verticalAlign=top;spacingLeft=4;spacingRight=4;overflow=hidden;rotatable=0;points=[[0,0.5],[1,0.5]];portConstraint=eastwest;" vertex="1" parent="-Nn-KrMIZRTyAtg2YQ6r-253">
          <mxGeometry y="583.2522865853658" width="640" height="23" as="geometry" />
        </mxCell>
        <mxCell id="-Nn-KrMIZRTyAtg2YQ6r-280" value="+getUsedCapacity() : String" style="text;strokeColor=none;fillColor=none;align=left;verticalAlign=top;spacingLeft=4;spacingRight=4;overflow=hidden;rotatable=0;points=[[0,0.5],[1,0.5]];portConstraint=eastwest;" vertex="1" parent="-Nn-KrMIZRTyAtg2YQ6r-253">
          <mxGeometry y="606.2522865853658" width="640" height="23" as="geometry" />
        </mxCell>
        <mxCell id="-Nn-KrMIZRTyAtg2YQ6r-281" value="+getShelfType() : String" style="text;strokeColor=none;fillColor=none;align=left;verticalAlign=top;spacingLeft=4;spacingRight=4;overflow=hidden;rotatable=0;points=[[0,0.5],[1,0.5]];portConstraint=eastwest;" vertex="1" parent="-Nn-KrMIZRTyAtg2YQ6r-253">
          <mxGeometry y="629.2522865853658" width="640" height="23" as="geometry" />
        </mxCell>
        <mxCell id="-Nn-KrMIZRTyAtg2YQ6r-282" value="+getShelfCondition() : String" style="text;strokeColor=none;fillColor=none;align=left;verticalAlign=top;spacingLeft=4;spacingRight=4;overflow=hidden;rotatable=0;points=[[0,0.5],[1,0.5]];portConstraint=eastwest;" vertex="1" parent="-Nn-KrMIZRTyAtg2YQ6r-253">
          <mxGeometry y="652.2522865853658" width="640" height="23" as="geometry" />
        </mxCell>
        <mxCell id="-Nn-KrMIZRTyAtg2YQ6r-283" value="+createInternObject(shIde : String, shCat : String, shCap : String, ocCap : String, shTyp : String, shCon : String) : void" style="text;strokeColor=none;fillColor=none;align=left;verticalAlign=top;spacingLeft=4;spacingRight=4;overflow=hidden;rotatable=0;points=[[0,0.5],[1,0.5]];portConstraint=eastwest;" vertex="1" parent="-Nn-KrMIZRTyAtg2YQ6r-253">
          <mxGeometry y="675.2522865853658" width="640" height="23" as="geometry" />
        </mxCell>
        <mxCell id="-Nn-KrMIZRTyAtg2YQ6r-284" value="+getAttributes() : String[]" style="text;strokeColor=none;fillColor=none;align=left;verticalAlign=top;spacingLeft=4;spacingRight=4;overflow=hidden;rotatable=0;points=[[0,0.5],[1,0.5]];portConstraint=eastwest;" vertex="1" parent="-Nn-KrMIZRTyAtg2YQ6r-253">
          <mxGeometry y="698.2522865853658" width="640" height="23" as="geometry" />
        </mxCell>
        <mxCell id="-Nn-KrMIZRTyAtg2YQ6r-285" value="+display() : void" style="text;strokeColor=none;fillColor=none;align=left;verticalAlign=top;spacingLeft=4;spacingRight=4;overflow=hidden;rotatable=0;points=[[0,0.5],[1,0.5]];portConstraint=eastwest;" vertex="1" parent="-Nn-KrMIZRTyAtg2YQ6r-253">
          <mxGeometry y="721.2522865853658" width="640" height="23" as="geometry" />
        </mxCell>
        <mxCell id="-Nn-KrMIZRTyAtg2YQ6r-286" value="+isObjectNull() : void" style="text;strokeColor=none;fillColor=none;align=left;verticalAlign=top;spacingLeft=4;spacingRight=4;overflow=hidden;rotatable=0;points=[[0,0.5],[1,0.5]];portConstraint=eastwest;" vertex="1" parent="-Nn-KrMIZRTyAtg2YQ6r-253">
          <mxGeometry y="744.2522865853658" width="640" height="23" as="geometry" />
        </mxCell>
        <mxCell id="-Nn-KrMIZRTyAtg2YQ6r-287" value="+isFull() : void" style="text;strokeColor=none;fillColor=none;align=left;verticalAlign=top;spacingLeft=4;spacingRight=4;overflow=hidden;rotatable=0;points=[[0,0.5],[1,0.5]];portConstraint=eastwest;" vertex="1" parent="-Nn-KrMIZRTyAtg2YQ6r-253">
          <mxGeometry y="767.2522865853658" width="640" height="23" as="geometry" />
        </mxCell>
        <mxCell id="-Nn-KrMIZRTyAtg2YQ6r-288" value="+addToDB() : void" style="text;strokeColor=none;fillColor=none;align=left;verticalAlign=top;spacingLeft=4;spacingRight=4;overflow=hidden;rotatable=0;points=[[0,0.5],[1,0.5]];portConstraint=eastwest;" vertex="1" parent="-Nn-KrMIZRTyAtg2YQ6r-253">
          <mxGeometry y="790.2522865853658" width="640" height="23" as="geometry" />
        </mxCell>
        <mxCell id="-Nn-KrMIZRTyAtg2YQ6r-289" value="+createAllShelfSpaces() : void" style="text;strokeColor=none;fillColor=none;align=left;verticalAlign=top;spacingLeft=4;spacingRight=4;overflow=hidden;rotatable=0;points=[[0,0.5],[1,0.5]];portConstraint=eastwest;" vertex="1" parent="-Nn-KrMIZRTyAtg2YQ6r-253">
          <mxGeometry y="813.2522865853658" width="640" height="23" as="geometry" />
        </mxCell>
        <mxCell id="-Nn-KrMIZRTyAtg2YQ6r-290" value="+getShelfNames(hangar_ID : int) : List" style="text;strokeColor=none;fillColor=none;align=left;verticalAlign=top;spacingLeft=4;spacingRight=4;overflow=hidden;rotatable=0;points=[[0,0.5],[1,0.5]];portConstraint=eastwest;" vertex="1" parent="-Nn-KrMIZRTyAtg2YQ6r-253">
          <mxGeometry y="836.2522865853658" width="640" height="23" as="geometry" />
        </mxCell>
        <mxCell id="-Nn-KrMIZRTyAtg2YQ6r-291" value="+getShelfNames() : List" style="text;strokeColor=none;fillColor=none;align=left;verticalAlign=top;spacingLeft=4;spacingRight=4;overflow=hidden;rotatable=0;points=[[0,0.5],[1,0.5]];portConstraint=eastwest;" vertex="1" parent="-Nn-KrMIZRTyAtg2YQ6r-253">
          <mxGeometry y="859.2522865853658" width="640" height="23" as="geometry" />
        </mxCell>
        <mxCell id="-Nn-KrMIZRTyAtg2YQ6r-292" value="+getIDfromDB() : int" style="text;strokeColor=none;fillColor=none;align=left;verticalAlign=top;spacingLeft=4;spacingRight=4;overflow=hidden;rotatable=0;points=[[0,0.5],[1,0.5]];portConstraint=eastwest;" vertex="1" parent="-Nn-KrMIZRTyAtg2YQ6r-253">
          <mxGeometry y="882.2522865853658" width="640" height="23" as="geometry" />
        </mxCell>
        <mxCell id="-Nn-KrMIZRTyAtg2YQ6r-293" value="+getShelfIdentification(Shelf_ID : int) : String" style="text;strokeColor=none;fillColor=none;align=left;verticalAlign=top;spacingLeft=4;spacingRight=4;overflow=hidden;rotatable=0;points=[[0,0.5],[1,0.5]];portConstraint=eastwest;" vertex="1" parent="-Nn-KrMIZRTyAtg2YQ6r-253">
          <mxGeometry y="905.2522865853658" width="640" height="23" as="geometry" />
        </mxCell>
        <mxCell id="-Nn-KrMIZRTyAtg2YQ6r-294" value="+getHangarID(shelf_identification : String) : int" style="text;strokeColor=none;fillColor=none;align=left;verticalAlign=top;spacingLeft=4;spacingRight=4;overflow=hidden;rotatable=0;points=[[0,0.5],[1,0.5]];portConstraint=eastwest;" vertex="1" parent="-Nn-KrMIZRTyAtg2YQ6r-253">
          <mxGeometry y="928.2522865853658" width="640" height="23" as="geometry" />
        </mxCell>
        <mxCell id="-Nn-KrMIZRTyAtg2YQ6r-295" value="ShelfSpace" style="swimlane;fontStyle=1;align=center;verticalAlign=top;childLayout=stackLayout;horizontal=1;startSize=23.59375;horizontalStack=0;resizeParent=1;resizeParentMax=0;resizeLast=0;collapsible=0;marginBottom=0;" vertex="1" parent="1">
          <mxGeometry x="1810" y="1450" width="490" height="655.59375" as="geometry" />
        </mxCell>
        <mxCell id="-Nn-KrMIZRTyAtg2YQ6r-296" value="-id : int" style="text;strokeColor=none;fillColor=none;align=left;verticalAlign=top;spacingLeft=4;spacingRight=4;overflow=hidden;rotatable=0;points=[[0,0.5],[1,0.5]];portConstraint=eastwest;" vertex="1" parent="-Nn-KrMIZRTyAtg2YQ6r-295">
          <mxGeometry y="23.59375" width="490" height="24" as="geometry" />
        </mxCell>
        <mxCell id="-Nn-KrMIZRTyAtg2YQ6r-297" value="-shelf_id : int" style="text;strokeColor=none;fillColor=none;align=left;verticalAlign=top;spacingLeft=4;spacingRight=4;overflow=hidden;rotatable=0;points=[[0,0.5],[1,0.5]];portConstraint=eastwest;" vertex="1" parent="-Nn-KrMIZRTyAtg2YQ6r-295">
          <mxGeometry y="47.59375" width="490" height="24" as="geometry" />
        </mxCell>
        <mxCell id="-Nn-KrMIZRTyAtg2YQ6r-298" value="-spaceIdentification : String" style="text;strokeColor=none;fillColor=none;align=left;verticalAlign=top;spacingLeft=4;spacingRight=4;overflow=hidden;rotatable=0;points=[[0,0.5],[1,0.5]];portConstraint=eastwest;" vertex="1" parent="-Nn-KrMIZRTyAtg2YQ6r-295">
          <mxGeometry y="71.59375" width="490" height="24" as="geometry" />
        </mxCell>
        <mxCell id="-Nn-KrMIZRTyAtg2YQ6r-299" value="-spaceOccupied : boolean" style="text;strokeColor=none;fillColor=none;align=left;verticalAlign=top;spacingLeft=4;spacingRight=4;overflow=hidden;rotatable=0;points=[[0,0.5],[1,0.5]];portConstraint=eastwest;" vertex="1" parent="-Nn-KrMIZRTyAtg2YQ6r-295">
          <mxGeometry y="95.59375" width="490" height="24" as="geometry" />
        </mxCell>
        <mxCell id="-Nn-KrMIZRTyAtg2YQ6r-300" value="-objectInstance : ShelfSpace" style="text;strokeColor=none;fillColor=none;align=left;verticalAlign=top;spacingLeft=4;spacingRight=4;overflow=hidden;rotatable=0;points=[[0,0.5],[1,0.5]];portConstraint=eastwest;" vertex="1" parent="-Nn-KrMIZRTyAtg2YQ6r-295">
          <mxGeometry y="119.59375" width="490" height="24" as="geometry" />
        </mxCell>
        <mxCell id="-Nn-KrMIZRTyAtg2YQ6r-301" value="-attributes : String[]" style="text;strokeColor=none;fillColor=none;align=left;verticalAlign=top;spacingLeft=4;spacingRight=4;overflow=hidden;rotatable=0;points=[[0,0.5],[1,0.5]];portConstraint=eastwest;" vertex="1" parent="-Nn-KrMIZRTyAtg2YQ6r-295">
          <mxGeometry y="143.59375" width="490" height="24" as="geometry" />
        </mxCell>
        <mxCell id="-Nn-KrMIZRTyAtg2YQ6r-302" style="line;strokeWidth=1;fillColor=none;align=left;verticalAlign=middle;spacingTop=-1;spacingLeft=3;spacingRight=3;rotatable=0;labelPosition=right;points=[];portConstraint=eastwest;strokeColor=inherit;" vertex="1" parent="-Nn-KrMIZRTyAtg2YQ6r-295">
          <mxGeometry y="167.59375" width="490" height="8" as="geometry" />
        </mxCell>
        <mxCell id="-Nn-KrMIZRTyAtg2YQ6r-303" value="+ShelfSpace(shelf_id : int, spId : String)" style="text;strokeColor=none;fillColor=none;align=left;verticalAlign=top;spacingLeft=4;spacingRight=4;overflow=hidden;rotatable=0;points=[[0,0.5],[1,0.5]];portConstraint=eastwest;" vertex="1" parent="-Nn-KrMIZRTyAtg2YQ6r-295">
          <mxGeometry y="175.59375" width="490" height="24" as="geometry" />
        </mxCell>
        <mxCell id="-Nn-KrMIZRTyAtg2YQ6r-304" value="+ShelfSpace()" style="text;strokeColor=none;fillColor=none;align=left;verticalAlign=top;spacingLeft=4;spacingRight=4;overflow=hidden;rotatable=0;points=[[0,0.5],[1,0.5]];portConstraint=eastwest;" vertex="1" parent="-Nn-KrMIZRTyAtg2YQ6r-295">
          <mxGeometry y="199.59375" width="490" height="24" as="geometry" />
        </mxCell>
        <mxCell id="-Nn-KrMIZRTyAtg2YQ6r-305" value="+ShelfSpace(data : String[])" style="text;strokeColor=none;fillColor=none;align=left;verticalAlign=top;spacingLeft=4;spacingRight=4;overflow=hidden;rotatable=0;points=[[0,0.5],[1,0.5]];portConstraint=eastwest;" vertex="1" parent="-Nn-KrMIZRTyAtg2YQ6r-295">
          <mxGeometry y="223.59375" width="490" height="24" as="geometry" />
        </mxCell>
        <mxCell id="-Nn-KrMIZRTyAtg2YQ6r-306" value="+ShelfSpace(spIde : String)" style="text;strokeColor=none;fillColor=none;align=left;verticalAlign=top;spacingLeft=4;spacingRight=4;overflow=hidden;rotatable=0;points=[[0,0.5],[1,0.5]];portConstraint=eastwest;" vertex="1" parent="-Nn-KrMIZRTyAtg2YQ6r-295">
          <mxGeometry y="247.59375" width="490" height="24" as="geometry" />
        </mxCell>
        <mxCell id="-Nn-KrMIZRTyAtg2YQ6r-307" value="+setShelfId(id : int) : void" style="text;strokeColor=none;fillColor=none;align=left;verticalAlign=top;spacingLeft=4;spacingRight=4;overflow=hidden;rotatable=0;points=[[0,0.5],[1,0.5]];portConstraint=eastwest;" vertex="1" parent="-Nn-KrMIZRTyAtg2YQ6r-295">
          <mxGeometry y="271.59375" width="490" height="24" as="geometry" />
        </mxCell>
        <mxCell id="-Nn-KrMIZRTyAtg2YQ6r-308" value="+setSpaceIdentifiaction(spaceIdentification : String) : void" style="text;strokeColor=none;fillColor=none;align=left;verticalAlign=top;spacingLeft=4;spacingRight=4;overflow=hidden;rotatable=0;points=[[0,0.5],[1,0.5]];portConstraint=eastwest;" vertex="1" parent="-Nn-KrMIZRTyAtg2YQ6r-295">
          <mxGeometry y="295.59375" width="490" height="24" as="geometry" />
        </mxCell>
        <mxCell id="-Nn-KrMIZRTyAtg2YQ6r-309" value="+setSpaceOccupied(spaceOccupied : boolean) : void" style="text;strokeColor=none;fillColor=none;align=left;verticalAlign=top;spacingLeft=4;spacingRight=4;overflow=hidden;rotatable=0;points=[[0,0.5],[1,0.5]];portConstraint=eastwest;" vertex="1" parent="-Nn-KrMIZRTyAtg2YQ6r-295">
          <mxGeometry y="319.59375" width="490" height="24" as="geometry" />
        </mxCell>
        <mxCell id="-Nn-KrMIZRTyAtg2YQ6r-310" value="+getShelfID() : int" style="text;strokeColor=none;fillColor=none;align=left;verticalAlign=top;spacingLeft=4;spacingRight=4;overflow=hidden;rotatable=0;points=[[0,0.5],[1,0.5]];portConstraint=eastwest;" vertex="1" parent="-Nn-KrMIZRTyAtg2YQ6r-295">
          <mxGeometry y="343.59375" width="490" height="24" as="geometry" />
        </mxCell>
        <mxCell id="-Nn-KrMIZRTyAtg2YQ6r-311" value="+getSpaceIdentification() : String" style="text;strokeColor=none;fillColor=none;align=left;verticalAlign=top;spacingLeft=4;spacingRight=4;overflow=hidden;rotatable=0;points=[[0,0.5],[1,0.5]];portConstraint=eastwest;" vertex="1" parent="-Nn-KrMIZRTyAtg2YQ6r-295">
          <mxGeometry y="367.59375" width="490" height="24" as="geometry" />
        </mxCell>
        <mxCell id="-Nn-KrMIZRTyAtg2YQ6r-312" value="+getSpaceOccupied() : boolean" style="text;strokeColor=none;fillColor=none;align=left;verticalAlign=top;spacingLeft=4;spacingRight=4;overflow=hidden;rotatable=0;points=[[0,0.5],[1,0.5]];portConstraint=eastwest;" vertex="1" parent="-Nn-KrMIZRTyAtg2YQ6r-295">
          <mxGeometry y="391.59375" width="490" height="24" as="geometry" />
        </mxCell>
        <mxCell id="-Nn-KrMIZRTyAtg2YQ6r-313" value="+getAttributes() : String[]" style="text;strokeColor=none;fillColor=none;align=left;verticalAlign=top;spacingLeft=4;spacingRight=4;overflow=hidden;rotatable=0;points=[[0,0.5],[1,0.5]];portConstraint=eastwest;" vertex="1" parent="-Nn-KrMIZRTyAtg2YQ6r-295">
          <mxGeometry y="415.59375" width="490" height="24" as="geometry" />
        </mxCell>
        <mxCell id="-Nn-KrMIZRTyAtg2YQ6r-314" value="+display() : void" style="text;strokeColor=none;fillColor=none;align=left;verticalAlign=top;spacingLeft=4;spacingRight=4;overflow=hidden;rotatable=0;points=[[0,0.5],[1,0.5]];portConstraint=eastwest;" vertex="1" parent="-Nn-KrMIZRTyAtg2YQ6r-295">
          <mxGeometry y="439.59375" width="490" height="24" as="geometry" />
        </mxCell>
        <mxCell id="-Nn-KrMIZRTyAtg2YQ6r-315" value="+isObjectNull() : void" style="text;strokeColor=none;fillColor=none;align=left;verticalAlign=top;spacingLeft=4;spacingRight=4;overflow=hidden;rotatable=0;points=[[0,0.5],[1,0.5]];portConstraint=eastwest;" vertex="1" parent="-Nn-KrMIZRTyAtg2YQ6r-295">
          <mxGeometry y="463.59375" width="490" height="24" as="geometry" />
        </mxCell>
        <mxCell id="-Nn-KrMIZRTyAtg2YQ6r-316" value="+addToDB() : void" style="text;strokeColor=none;fillColor=none;align=left;verticalAlign=top;spacingLeft=4;spacingRight=4;overflow=hidden;rotatable=0;points=[[0,0.5],[1,0.5]];portConstraint=eastwest;" vertex="1" parent="-Nn-KrMIZRTyAtg2YQ6r-295">
          <mxGeometry y="487.59375" width="490" height="24" as="geometry" />
        </mxCell>
        <mxCell id="-Nn-KrMIZRTyAtg2YQ6r-317" value="+getShelfSapceNames(shelfID : int) : List" style="text;strokeColor=none;fillColor=none;align=left;verticalAlign=top;spacingLeft=4;spacingRight=4;overflow=hidden;rotatable=0;points=[[0,0.5],[1,0.5]];portConstraint=eastwest;" vertex="1" parent="-Nn-KrMIZRTyAtg2YQ6r-295">
          <mxGeometry y="511.59375" width="490" height="24" as="geometry" />
        </mxCell>
        <mxCell id="-Nn-KrMIZRTyAtg2YQ6r-318" value="+getIDfromDB() : int" style="text;strokeColor=none;fillColor=none;align=left;verticalAlign=top;spacingLeft=4;spacingRight=4;overflow=hidden;rotatable=0;points=[[0,0.5],[1,0.5]];portConstraint=eastwest;" vertex="1" parent="-Nn-KrMIZRTyAtg2YQ6r-295">
          <mxGeometry y="535.59375" width="490" height="24" as="geometry" />
        </mxCell>
        <mxCell id="-Nn-KrMIZRTyAtg2YQ6r-319" value="+getShelfIDfromDB(shelfSpace_Identification : String) : int" style="text;strokeColor=none;fillColor=none;align=left;verticalAlign=top;spacingLeft=4;spacingRight=4;overflow=hidden;rotatable=0;points=[[0,0.5],[1,0.5]];portConstraint=eastwest;" vertex="1" parent="-Nn-KrMIZRTyAtg2YQ6r-295">
          <mxGeometry y="559.59375" width="490" height="24" as="geometry" />
        </mxCell>
        <mxCell id="-Nn-KrMIZRTyAtg2YQ6r-320" value="+getShelfSpaceIDfromDB(shelfSpace_Identification : String) : int" style="text;strokeColor=none;fillColor=none;align=left;verticalAlign=top;spacingLeft=4;spacingRight=4;overflow=hidden;rotatable=0;points=[[0,0.5],[1,0.5]];portConstraint=eastwest;" vertex="1" parent="-Nn-KrMIZRTyAtg2YQ6r-295">
          <mxGeometry y="583.59375" width="490" height="24" as="geometry" />
        </mxCell>
        <mxCell id="-Nn-KrMIZRTyAtg2YQ6r-321" value="+changeOccupation(shelfSpace_ID : int) : void" style="text;strokeColor=none;fillColor=none;align=left;verticalAlign=top;spacingLeft=4;spacingRight=4;overflow=hidden;rotatable=0;points=[[0,0.5],[1,0.5]];portConstraint=eastwest;" vertex="1" parent="-Nn-KrMIZRTyAtg2YQ6r-295">
          <mxGeometry y="607.59375" width="490" height="24" as="geometry" />
        </mxCell>
        <mxCell id="-Nn-KrMIZRTyAtg2YQ6r-322" value="+updateColumnValue(conn : Connection, shelfSpace_ID : int, newValue : boolean) : void" style="text;strokeColor=none;fillColor=none;align=left;verticalAlign=top;spacingLeft=4;spacingRight=4;overflow=hidden;rotatable=0;points=[[0,0.5],[1,0.5]];portConstraint=eastwest;" vertex="1" parent="-Nn-KrMIZRTyAtg2YQ6r-295">
          <mxGeometry y="631.59375" width="490" height="24" as="geometry" />
        </mxCell>
        <mxCell id="-Nn-KrMIZRTyAtg2YQ6r-323" value="TemperatureRelatedProduct" style="swimlane;fontStyle=1;align=center;verticalAlign=top;childLayout=stackLayout;horizontal=1;startSize=25.59375;horizontalStack=0;resizeParent=1;resizeParentMax=0;resizeLast=0;collapsible=0;marginBottom=0;" vertex="1" parent="1">
          <mxGeometry x="710" y="2460" width="990" height="241.59375" as="geometry" />
        </mxCell>
        <mxCell id="-Nn-KrMIZRTyAtg2YQ6r-324" value="-climateCategory : String" style="text;strokeColor=none;fillColor=none;align=left;verticalAlign=top;spacingLeft=4;spacingRight=4;overflow=hidden;rotatable=0;points=[[0,0.5],[1,0.5]];portConstraint=eastwest;" vertex="1" parent="-Nn-KrMIZRTyAtg2YQ6r-323">
          <mxGeometry y="25.59375" width="990" height="26" as="geometry" />
        </mxCell>
        <mxCell id="-Nn-KrMIZRTyAtg2YQ6r-325" value="-temperature : double" style="text;strokeColor=none;fillColor=none;align=left;verticalAlign=top;spacingLeft=4;spacingRight=4;overflow=hidden;rotatable=0;points=[[0,0.5],[1,0.5]];portConstraint=eastwest;" vertex="1" parent="-Nn-KrMIZRTyAtg2YQ6r-323">
          <mxGeometry y="51.59375" width="990" height="26" as="geometry" />
        </mxCell>
        <mxCell id="-Nn-KrMIZRTyAtg2YQ6r-326" style="line;strokeWidth=1;fillColor=none;align=left;verticalAlign=middle;spacingTop=-1;spacingLeft=3;spacingRight=3;rotatable=0;labelPosition=right;points=[];portConstraint=eastwest;strokeColor=inherit;" vertex="1" parent="-Nn-KrMIZRTyAtg2YQ6r-323">
          <mxGeometry y="77.59375" width="990" height="8" as="geometry" />
        </mxCell>
        <mxCell id="-Nn-KrMIZRTyAtg2YQ6r-327" value="+TemperatureRelatedProduct(amount : Integer, productNumber : String, shelfSpace_ID : int, productName : String, manufacturer : String, climateCategory : String, temperature : double)" style="text;strokeColor=none;fillColor=none;align=left;verticalAlign=top;spacingLeft=4;spacingRight=4;overflow=hidden;rotatable=0;points=[[0,0.5],[1,0.5]];portConstraint=eastwest;" vertex="1" parent="-Nn-KrMIZRTyAtg2YQ6r-323">
          <mxGeometry y="85.59375" width="990" height="26" as="geometry" />
        </mxCell>
        <mxCell id="-Nn-KrMIZRTyAtg2YQ6r-328" value="+getClimateCategory() : String" style="text;strokeColor=none;fillColor=none;align=left;verticalAlign=top;spacingLeft=4;spacingRight=4;overflow=hidden;rotatable=0;points=[[0,0.5],[1,0.5]];portConstraint=eastwest;" vertex="1" parent="-Nn-KrMIZRTyAtg2YQ6r-323">
          <mxGeometry y="111.59375" width="990" height="26" as="geometry" />
        </mxCell>
        <mxCell id="-Nn-KrMIZRTyAtg2YQ6r-329" value="+getTemperature() : double" style="text;strokeColor=none;fillColor=none;align=left;verticalAlign=top;spacingLeft=4;spacingRight=4;overflow=hidden;rotatable=0;points=[[0,0.5],[1,0.5]];portConstraint=eastwest;" vertex="1" parent="-Nn-KrMIZRTyAtg2YQ6r-323">
          <mxGeometry y="137.59375" width="990" height="26" as="geometry" />
        </mxCell>
        <mxCell id="-Nn-KrMIZRTyAtg2YQ6r-330" value="+setClimateCategory(climateCategory : String) : void" style="text;strokeColor=none;fillColor=none;align=left;verticalAlign=top;spacingLeft=4;spacingRight=4;overflow=hidden;rotatable=0;points=[[0,0.5],[1,0.5]];portConstraint=eastwest;" vertex="1" parent="-Nn-KrMIZRTyAtg2YQ6r-323">
          <mxGeometry y="163.59375" width="990" height="26" as="geometry" />
        </mxCell>
        <mxCell id="-Nn-KrMIZRTyAtg2YQ6r-331" value="+setTemperature(temperature : double) : void" style="text;strokeColor=none;fillColor=none;align=left;verticalAlign=top;spacingLeft=4;spacingRight=4;overflow=hidden;rotatable=0;points=[[0,0.5],[1,0.5]];portConstraint=eastwest;" vertex="1" parent="-Nn-KrMIZRTyAtg2YQ6r-323">
          <mxGeometry y="189.59375" width="990" height="26" as="geometry" />
        </mxCell>
        <mxCell id="-Nn-KrMIZRTyAtg2YQ6r-332" value="+addToDB() : void" style="text;strokeColor=none;fillColor=none;align=left;verticalAlign=top;spacingLeft=4;spacingRight=4;overflow=hidden;rotatable=0;points=[[0,0.5],[1,0.5]];portConstraint=eastwest;" vertex="1" parent="-Nn-KrMIZRTyAtg2YQ6r-323">
          <mxGeometry y="215.59375" width="990" height="26" as="geometry" />
        </mxCell>
        <mxCell id="-Nn-KrMIZRTyAtg2YQ6r-335" value="Inheritance" style="curved=1;startArrow=none;endArrow=block;endSize=16;endFill=0;exitX=0.5;exitY=0;rounded=0;exitDx=0;exitDy=0;" edge="1" parent="1" source="-Nn-KrMIZRTyAtg2YQ6r-323" target="-Nn-KrMIZRTyAtg2YQ6r-252">
          <mxGeometry relative="1" as="geometry">
            <Array as="points" />
            <mxPoint x="710" y="2250" as="targetPoint" />
          </mxGeometry>
        </mxCell>
        <mxCell id="-Nn-KrMIZRTyAtg2YQ6r-336" value="TimeLimitedProduct" style="swimlane;fontStyle=1;align=center;verticalAlign=top;childLayout=stackLayout;horizontal=1;startSize=27.09375;horizontalStack=0;resizeParent=1;resizeParentMax=0;resizeLast=0;collapsible=0;marginBottom=0;" vertex="1" parent="1">
          <mxGeometry x="-120" y="2460" width="800" height="170.09375" as="geometry" />
        </mxCell>
        <mxCell id="-Nn-KrMIZRTyAtg2YQ6r-337" value="-expiryDate : String" style="text;strokeColor=none;fillColor=none;align=left;verticalAlign=top;spacingLeft=4;spacingRight=4;overflow=hidden;rotatable=0;points=[[0,0.5],[1,0.5]];portConstraint=eastwest;" vertex="1" parent="-Nn-KrMIZRTyAtg2YQ6r-336">
          <mxGeometry y="27.09375" width="800" height="27" as="geometry" />
        </mxCell>
        <mxCell id="-Nn-KrMIZRTyAtg2YQ6r-338" style="line;strokeWidth=1;fillColor=none;align=left;verticalAlign=middle;spacingTop=-1;spacingLeft=3;spacingRight=3;rotatable=0;labelPosition=right;points=[];portConstraint=eastwest;strokeColor=inherit;" vertex="1" parent="-Nn-KrMIZRTyAtg2YQ6r-336">
          <mxGeometry y="54.09375" width="800" height="8" as="geometry" />
        </mxCell>
        <mxCell id="-Nn-KrMIZRTyAtg2YQ6r-339" value="+TimeLimitedProduct(amount : Integer, productNumber : String, shelfSpace_ID : int, productName : String, manufacturer : String, expiryDate : String)" style="text;strokeColor=none;fillColor=none;align=left;verticalAlign=top;spacingLeft=4;spacingRight=4;overflow=hidden;rotatable=0;points=[[0,0.5],[1,0.5]];portConstraint=eastwest;" vertex="1" parent="-Nn-KrMIZRTyAtg2YQ6r-336">
          <mxGeometry y="62.09375" width="800" height="27" as="geometry" />
        </mxCell>
        <mxCell id="-Nn-KrMIZRTyAtg2YQ6r-340" value="+getExpiryDate() : String" style="text;strokeColor=none;fillColor=none;align=left;verticalAlign=top;spacingLeft=4;spacingRight=4;overflow=hidden;rotatable=0;points=[[0,0.5],[1,0.5]];portConstraint=eastwest;" vertex="1" parent="-Nn-KrMIZRTyAtg2YQ6r-336">
          <mxGeometry y="89.09375" width="800" height="27" as="geometry" />
        </mxCell>
        <mxCell id="-Nn-KrMIZRTyAtg2YQ6r-341" value="+setExpiryDate(expiryDate : String) : void" style="text;strokeColor=none;fillColor=none;align=left;verticalAlign=top;spacingLeft=4;spacingRight=4;overflow=hidden;rotatable=0;points=[[0,0.5],[1,0.5]];portConstraint=eastwest;" vertex="1" parent="-Nn-KrMIZRTyAtg2YQ6r-336">
          <mxGeometry y="116.09375" width="800" height="27" as="geometry" />
        </mxCell>
        <mxCell id="-Nn-KrMIZRTyAtg2YQ6r-342" value="+addToDB() : void" style="text;strokeColor=none;fillColor=none;align=left;verticalAlign=top;spacingLeft=4;spacingRight=4;overflow=hidden;rotatable=0;points=[[0,0.5],[1,0.5]];portConstraint=eastwest;" vertex="1" parent="-Nn-KrMIZRTyAtg2YQ6r-336">
          <mxGeometry y="143.09375" width="800" height="27" as="geometry" />
        </mxCell>
        <mxCell id="-Nn-KrMIZRTyAtg2YQ6r-345" value="Inheritance" style="curved=1;startArrow=none;endArrow=block;endSize=16;endFill=0;exitX=0.5;exitY=0;rounded=0;exitDx=0;exitDy=0;" edge="1" parent="1" source="-Nn-KrMIZRTyAtg2YQ6r-336">
          <mxGeometry relative="1" as="geometry">
            <Array as="points" />
            <mxPoint x="680" y="2240" as="targetPoint" />
          </mxGeometry>
        </mxCell>
        <mxCell id="-Nn-KrMIZRTyAtg2YQ6r-346" value="DetailedViewController" style="swimlane;fontStyle=1;align=center;verticalAlign=top;childLayout=stackLayout;horizontal=1;startSize=24.28125;horizontalStack=0;resizeParent=1;resizeParentMax=0;resizeLast=0;collapsible=0;marginBottom=0;" vertex="1" parent="1">
          <mxGeometry x="180" y="680" width="360" height="392.28125" as="geometry" />
        </mxCell>
        <mxCell id="-Nn-KrMIZRTyAtg2YQ6r-347" value="-productIDField : TextField" style="text;strokeColor=none;fillColor=none;align=left;verticalAlign=top;spacingLeft=4;spacingRight=4;overflow=hidden;rotatable=0;points=[[0,0.5],[1,0.5]];portConstraint=eastwest;" vertex="1" parent="-Nn-KrMIZRTyAtg2YQ6r-346">
          <mxGeometry y="24.28125" width="360" height="24" as="geometry" />
        </mxCell>
        <mxCell id="-Nn-KrMIZRTyAtg2YQ6r-348" value="-productNumberField : TextField" style="text;strokeColor=none;fillColor=none;align=left;verticalAlign=top;spacingLeft=4;spacingRight=4;overflow=hidden;rotatable=0;points=[[0,0.5],[1,0.5]];portConstraint=eastwest;" vertex="1" parent="-Nn-KrMIZRTyAtg2YQ6r-346">
          <mxGeometry y="48.28125" width="360" height="24" as="geometry" />
        </mxCell>
        <mxCell id="-Nn-KrMIZRTyAtg2YQ6r-349" value="-stellplatzIDField : TextField" style="text;strokeColor=none;fillColor=none;align=left;verticalAlign=top;spacingLeft=4;spacingRight=4;overflow=hidden;rotatable=0;points=[[0,0.5],[1,0.5]];portConstraint=eastwest;" vertex="1" parent="-Nn-KrMIZRTyAtg2YQ6r-346">
          <mxGeometry y="72.28125" width="360" height="24" as="geometry" />
        </mxCell>
        <mxCell id="-Nn-KrMIZRTyAtg2YQ6r-350" value="-amountField : TextField" style="text;strokeColor=none;fillColor=none;align=left;verticalAlign=top;spacingLeft=4;spacingRight=4;overflow=hidden;rotatable=0;points=[[0,0.5],[1,0.5]];portConstraint=eastwest;" vertex="1" parent="-Nn-KrMIZRTyAtg2YQ6r-346">
          <mxGeometry y="96.28125" width="360" height="24" as="geometry" />
        </mxCell>
        <mxCell id="-Nn-KrMIZRTyAtg2YQ6r-351" value="-productNameField : TextField" style="text;strokeColor=none;fillColor=none;align=left;verticalAlign=top;spacingLeft=4;spacingRight=4;overflow=hidden;rotatable=0;points=[[0,0.5],[1,0.5]];portConstraint=eastwest;" vertex="1" parent="-Nn-KrMIZRTyAtg2YQ6r-346">
          <mxGeometry y="120.28125" width="360" height="24" as="geometry" />
        </mxCell>
        <mxCell id="-Nn-KrMIZRTyAtg2YQ6r-352" value="-manufacturerField : TextField" style="text;strokeColor=none;fillColor=none;align=left;verticalAlign=top;spacingLeft=4;spacingRight=4;overflow=hidden;rotatable=0;points=[[0,0.5],[1,0.5]];portConstraint=eastwest;" vertex="1" parent="-Nn-KrMIZRTyAtg2YQ6r-346">
          <mxGeometry y="144.28125" width="360" height="24" as="geometry" />
        </mxCell>
        <mxCell id="-Nn-KrMIZRTyAtg2YQ6r-353" value="-regal : TextField" style="text;strokeColor=none;fillColor=none;align=left;verticalAlign=top;spacingLeft=4;spacingRight=4;overflow=hidden;rotatable=0;points=[[0,0.5],[1,0.5]];portConstraint=eastwest;" vertex="1" parent="-Nn-KrMIZRTyAtg2YQ6r-346">
          <mxGeometry y="168.28125" width="360" height="24" as="geometry" />
        </mxCell>
        <mxCell id="-Nn-KrMIZRTyAtg2YQ6r-354" value="-lager : TextField" style="text;strokeColor=none;fillColor=none;align=left;verticalAlign=top;spacingLeft=4;spacingRight=4;overflow=hidden;rotatable=0;points=[[0,0.5],[1,0.5]];portConstraint=eastwest;" vertex="1" parent="-Nn-KrMIZRTyAtg2YQ6r-346">
          <mxGeometry y="192.28125" width="360" height="24" as="geometry" />
        </mxCell>
        <mxCell id="-Nn-KrMIZRTyAtg2YQ6r-355" value="-cancelButton : Button" style="text;strokeColor=none;fillColor=none;align=left;verticalAlign=top;spacingLeft=4;spacingRight=4;overflow=hidden;rotatable=0;points=[[0,0.5],[1,0.5]];portConstraint=eastwest;" vertex="1" parent="-Nn-KrMIZRTyAtg2YQ6r-346">
          <mxGeometry y="216.28125" width="360" height="24" as="geometry" />
        </mxCell>
        <mxCell id="-Nn-KrMIZRTyAtg2YQ6r-356" style="line;strokeWidth=1;fillColor=none;align=left;verticalAlign=middle;spacingTop=-1;spacingLeft=3;spacingRight=3;rotatable=0;labelPosition=right;points=[];portConstraint=eastwest;strokeColor=inherit;" vertex="1" parent="-Nn-KrMIZRTyAtg2YQ6r-346">
          <mxGeometry y="240.28125" width="360" height="8" as="geometry" />
        </mxCell>
        <mxCell id="-Nn-KrMIZRTyAtg2YQ6r-357" value="+setProductDetails(product : Product) : void" style="text;strokeColor=none;fillColor=none;align=left;verticalAlign=top;spacingLeft=4;spacingRight=4;overflow=hidden;rotatable=0;points=[[0,0.5],[1,0.5]];portConstraint=eastwest;" vertex="1" parent="-Nn-KrMIZRTyAtg2YQ6r-346">
          <mxGeometry y="248.28125" width="360" height="24" as="geometry" />
        </mxCell>
        <mxCell id="-Nn-KrMIZRTyAtg2YQ6r-358" value="+getShelfID(shellSpace_Identification : String) : int" style="text;strokeColor=none;fillColor=none;align=left;verticalAlign=top;spacingLeft=4;spacingRight=4;overflow=hidden;rotatable=0;points=[[0,0.5],[1,0.5]];portConstraint=eastwest;" vertex="1" parent="-Nn-KrMIZRTyAtg2YQ6r-346">
          <mxGeometry y="272.28125" width="360" height="24" as="geometry" />
        </mxCell>
        <mxCell id="-Nn-KrMIZRTyAtg2YQ6r-359" value="+getShelfIdentification(shellSpace_Identification : String) : String" style="text;strokeColor=none;fillColor=none;align=left;verticalAlign=top;spacingLeft=4;spacingRight=4;overflow=hidden;rotatable=0;points=[[0,0.5],[1,0.5]];portConstraint=eastwest;" vertex="1" parent="-Nn-KrMIZRTyAtg2YQ6r-346">
          <mxGeometry y="296.28125" width="360" height="24" as="geometry" />
        </mxCell>
        <mxCell id="-Nn-KrMIZRTyAtg2YQ6r-360" value="+getHangarIdentification(shelfIdentification : String) : String" style="text;strokeColor=none;fillColor=none;align=left;verticalAlign=top;spacingLeft=4;spacingRight=4;overflow=hidden;rotatable=0;points=[[0,0.5],[1,0.5]];portConstraint=eastwest;" vertex="1" parent="-Nn-KrMIZRTyAtg2YQ6r-346">
          <mxGeometry y="320.28125" width="360" height="24" as="geometry" />
        </mxCell>
        <mxCell id="-Nn-KrMIZRTyAtg2YQ6r-361" value="+closeWindow() : void" style="text;strokeColor=none;fillColor=none;align=left;verticalAlign=top;spacingLeft=4;spacingRight=4;overflow=hidden;rotatable=0;points=[[0,0.5],[1,0.5]];portConstraint=eastwest;" vertex="1" parent="-Nn-KrMIZRTyAtg2YQ6r-346">
          <mxGeometry y="344.28125" width="360" height="24" as="geometry" />
        </mxCell>
        <mxCell id="-Nn-KrMIZRTyAtg2YQ6r-362" value="+initialize(location : URL, resources : ResourceBundle) : void" style="text;strokeColor=none;fillColor=none;align=left;verticalAlign=top;spacingLeft=4;spacingRight=4;overflow=hidden;rotatable=0;points=[[0,0.5],[1,0.5]];portConstraint=eastwest;" vertex="1" parent="-Nn-KrMIZRTyAtg2YQ6r-346">
          <mxGeometry y="368.28125" width="360" height="24" as="geometry" />
        </mxCell>
        <mxCell id="-Nn-KrMIZRTyAtg2YQ6r-363" value="EditProductController" style="swimlane;fontStyle=1;align=center;verticalAlign=top;childLayout=stackLayout;horizontal=1;startSize=24.28125;horizontalStack=0;resizeParent=1;resizeParentMax=0;resizeLast=0;collapsible=0;marginBottom=0;" vertex="1" parent="1">
          <mxGeometry x="590" y="680" width="340" height="392.28125" as="geometry" />
        </mxCell>
        <mxCell id="-Nn-KrMIZRTyAtg2YQ6r-364" value="-productIDField : TextField" style="text;strokeColor=none;fillColor=none;align=left;verticalAlign=top;spacingLeft=4;spacingRight=4;overflow=hidden;rotatable=0;points=[[0,0.5],[1,0.5]];portConstraint=eastwest;" vertex="1" parent="-Nn-KrMIZRTyAtg2YQ6r-363">
          <mxGeometry y="24.28125" width="340" height="24" as="geometry" />
        </mxCell>
        <mxCell id="-Nn-KrMIZRTyAtg2YQ6r-365" value="-productNumberField : TextField" style="text;strokeColor=none;fillColor=none;align=left;verticalAlign=top;spacingLeft=4;spacingRight=4;overflow=hidden;rotatable=0;points=[[0,0.5],[1,0.5]];portConstraint=eastwest;" vertex="1" parent="-Nn-KrMIZRTyAtg2YQ6r-363">
          <mxGeometry y="48.28125" width="340" height="24" as="geometry" />
        </mxCell>
        <mxCell id="-Nn-KrMIZRTyAtg2YQ6r-366" value="-stellplatzIDField : TextField" style="text;strokeColor=none;fillColor=none;align=left;verticalAlign=top;spacingLeft=4;spacingRight=4;overflow=hidden;rotatable=0;points=[[0,0.5],[1,0.5]];portConstraint=eastwest;" vertex="1" parent="-Nn-KrMIZRTyAtg2YQ6r-363">
          <mxGeometry y="72.28125" width="340" height="24" as="geometry" />
        </mxCell>
        <mxCell id="-Nn-KrMIZRTyAtg2YQ6r-367" value="-stellplatzIDSelection : ComboBox" style="text;strokeColor=none;fillColor=none;align=left;verticalAlign=top;spacingLeft=4;spacingRight=4;overflow=hidden;rotatable=0;points=[[0,0.5],[1,0.5]];portConstraint=eastwest;" vertex="1" parent="-Nn-KrMIZRTyAtg2YQ6r-363">
          <mxGeometry y="96.28125" width="340" height="24" as="geometry" />
        </mxCell>
        <mxCell id="-Nn-KrMIZRTyAtg2YQ6r-368" value="-amountField : TextField" style="text;strokeColor=none;fillColor=none;align=left;verticalAlign=top;spacingLeft=4;spacingRight=4;overflow=hidden;rotatable=0;points=[[0,0.5],[1,0.5]];portConstraint=eastwest;" vertex="1" parent="-Nn-KrMIZRTyAtg2YQ6r-363">
          <mxGeometry y="120.28125" width="340" height="24" as="geometry" />
        </mxCell>
        <mxCell id="-Nn-KrMIZRTyAtg2YQ6r-369" value="-productNameField : TextField" style="text;strokeColor=none;fillColor=none;align=left;verticalAlign=top;spacingLeft=4;spacingRight=4;overflow=hidden;rotatable=0;points=[[0,0.5],[1,0.5]];portConstraint=eastwest;" vertex="1" parent="-Nn-KrMIZRTyAtg2YQ6r-363">
          <mxGeometry y="144.28125" width="340" height="24" as="geometry" />
        </mxCell>
        <mxCell id="-Nn-KrMIZRTyAtg2YQ6r-370" value="-manufacturerField : TextField" style="text;strokeColor=none;fillColor=none;align=left;verticalAlign=top;spacingLeft=4;spacingRight=4;overflow=hidden;rotatable=0;points=[[0,0.5],[1,0.5]];portConstraint=eastwest;" vertex="1" parent="-Nn-KrMIZRTyAtg2YQ6r-363">
          <mxGeometry y="168.28125" width="340" height="24" as="geometry" />
        </mxCell>
        <mxCell id="-Nn-KrMIZRTyAtg2YQ6r-371" value="-submitEdit : Button" style="text;strokeColor=none;fillColor=none;align=left;verticalAlign=top;spacingLeft=4;spacingRight=4;overflow=hidden;rotatable=0;points=[[0,0.5],[1,0.5]];portConstraint=eastwest;" vertex="1" parent="-Nn-KrMIZRTyAtg2YQ6r-363">
          <mxGeometry y="192.28125" width="340" height="24" as="geometry" />
        </mxCell>
        <mxCell id="-Nn-KrMIZRTyAtg2YQ6r-372" value="-cancelEdit : Button" style="text;strokeColor=none;fillColor=none;align=left;verticalAlign=top;spacingLeft=4;spacingRight=4;overflow=hidden;rotatable=0;points=[[0,0.5],[1,0.5]];portConstraint=eastwest;" vertex="1" parent="-Nn-KrMIZRTyAtg2YQ6r-363">
          <mxGeometry y="216.28125" width="340" height="24" as="geometry" />
        </mxCell>
        <mxCell id="-Nn-KrMIZRTyAtg2YQ6r-373" value="-product : Product" style="text;strokeColor=none;fillColor=none;align=left;verticalAlign=top;spacingLeft=4;spacingRight=4;overflow=hidden;rotatable=0;points=[[0,0.5],[1,0.5]];portConstraint=eastwest;" vertex="1" parent="-Nn-KrMIZRTyAtg2YQ6r-363">
          <mxGeometry y="240.28125" width="340" height="24" as="geometry" />
        </mxCell>
        <mxCell id="-Nn-KrMIZRTyAtg2YQ6r-374" style="line;strokeWidth=1;fillColor=none;align=left;verticalAlign=middle;spacingTop=-1;spacingLeft=3;spacingRight=3;rotatable=0;labelPosition=right;points=[];portConstraint=eastwest;strokeColor=inherit;" vertex="1" parent="-Nn-KrMIZRTyAtg2YQ6r-363">
          <mxGeometry y="264.28125" width="340" height="8" as="geometry" />
        </mxCell>
        <mxCell id="-Nn-KrMIZRTyAtg2YQ6r-375" value="+initialize(url : URL, resourceBundle : ResourceBundle) : void" style="text;strokeColor=none;fillColor=none;align=left;verticalAlign=top;spacingLeft=4;spacingRight=4;overflow=hidden;rotatable=0;points=[[0,0.5],[1,0.5]];portConstraint=eastwest;" vertex="1" parent="-Nn-KrMIZRTyAtg2YQ6r-363">
          <mxGeometry y="272.28125" width="340" height="24" as="geometry" />
        </mxCell>
        <mxCell id="-Nn-KrMIZRTyAtg2YQ6r-376" value="+setProductData(product : Product) : void" style="text;strokeColor=none;fillColor=none;align=left;verticalAlign=top;spacingLeft=4;spacingRight=4;overflow=hidden;rotatable=0;points=[[0,0.5],[1,0.5]];portConstraint=eastwest;" vertex="1" parent="-Nn-KrMIZRTyAtg2YQ6r-363">
          <mxGeometry y="296.28125" width="340" height="24" as="geometry" />
        </mxCell>
        <mxCell id="-Nn-KrMIZRTyAtg2YQ6r-377" value="+saveProduct() : void" style="text;strokeColor=none;fillColor=none;align=left;verticalAlign=top;spacingLeft=4;spacingRight=4;overflow=hidden;rotatable=0;points=[[0,0.5],[1,0.5]];portConstraint=eastwest;" vertex="1" parent="-Nn-KrMIZRTyAtg2YQ6r-363">
          <mxGeometry y="320.28125" width="340" height="24" as="geometry" />
        </mxCell>
        <mxCell id="-Nn-KrMIZRTyAtg2YQ6r-378" value="+closeWindow() : void" style="text;strokeColor=none;fillColor=none;align=left;verticalAlign=top;spacingLeft=4;spacingRight=4;overflow=hidden;rotatable=0;points=[[0,0.5],[1,0.5]];portConstraint=eastwest;" vertex="1" parent="-Nn-KrMIZRTyAtg2YQ6r-363">
          <mxGeometry y="344.28125" width="340" height="24" as="geometry" />
        </mxCell>
        <mxCell id="-Nn-KrMIZRTyAtg2YQ6r-379" value="+setNewStellplatzIDValues() : void" style="text;strokeColor=none;fillColor=none;align=left;verticalAlign=top;spacingLeft=4;spacingRight=4;overflow=hidden;rotatable=0;points=[[0,0.5],[1,0.5]];portConstraint=eastwest;" vertex="1" parent="-Nn-KrMIZRTyAtg2YQ6r-363">
          <mxGeometry y="368.28125" width="340" height="24" as="geometry" />
        </mxCell>
        <mxCell id="-Nn-KrMIZRTyAtg2YQ6r-380" value="HangarController" style="swimlane;fontStyle=1;align=center;verticalAlign=top;childLayout=stackLayout;horizontal=1;startSize=25.96875;horizontalStack=0;resizeParent=1;resizeParentMax=0;resizeLast=0;collapsible=0;marginBottom=0;" vertex="1" parent="1">
          <mxGeometry x="978" y="680" width="340" height="215.96875" as="geometry" />
        </mxCell>
        <mxCell id="-Nn-KrMIZRTyAtg2YQ6r-381" value="-hangerIdentification : TextField" style="text;strokeColor=none;fillColor=none;align=left;verticalAlign=top;spacingLeft=4;spacingRight=4;overflow=hidden;rotatable=0;points=[[0,0.5],[1,0.5]];portConstraint=eastwest;" vertex="1" parent="-Nn-KrMIZRTyAtg2YQ6r-380">
          <mxGeometry y="25.96875" width="340" height="26" as="geometry" />
        </mxCell>
        <mxCell id="-Nn-KrMIZRTyAtg2YQ6r-382" value="-hangerSize : TextField" style="text;strokeColor=none;fillColor=none;align=left;verticalAlign=top;spacingLeft=4;spacingRight=4;overflow=hidden;rotatable=0;points=[[0,0.5],[1,0.5]];portConstraint=eastwest;" vertex="1" parent="-Nn-KrMIZRTyAtg2YQ6r-380">
          <mxGeometry y="51.96875" width="340" height="26" as="geometry" />
        </mxCell>
        <mxCell id="-Nn-KrMIZRTyAtg2YQ6r-383" value="-submitAdd : Button" style="text;strokeColor=none;fillColor=none;align=left;verticalAlign=top;spacingLeft=4;spacingRight=4;overflow=hidden;rotatable=0;points=[[0,0.5],[1,0.5]];portConstraint=eastwest;" vertex="1" parent="-Nn-KrMIZRTyAtg2YQ6r-380">
          <mxGeometry y="77.96875" width="340" height="26" as="geometry" />
        </mxCell>
        <mxCell id="-Nn-KrMIZRTyAtg2YQ6r-384" value="-cancelAdd : Button" style="text;strokeColor=none;fillColor=none;align=left;verticalAlign=top;spacingLeft=4;spacingRight=4;overflow=hidden;rotatable=0;points=[[0,0.5],[1,0.5]];portConstraint=eastwest;" vertex="1" parent="-Nn-KrMIZRTyAtg2YQ6r-380">
          <mxGeometry y="103.96875" width="340" height="26" as="geometry" />
        </mxCell>
        <mxCell id="-Nn-KrMIZRTyAtg2YQ6r-385" style="line;strokeWidth=1;fillColor=none;align=left;verticalAlign=middle;spacingTop=-1;spacingLeft=3;spacingRight=3;rotatable=0;labelPosition=right;points=[];portConstraint=eastwest;strokeColor=inherit;" vertex="1" parent="-Nn-KrMIZRTyAtg2YQ6r-380">
          <mxGeometry y="129.96875" width="340" height="8" as="geometry" />
        </mxCell>
        <mxCell id="-Nn-KrMIZRTyAtg2YQ6r-386" value="+initialize(location : URL, resources : ResourceBundle) : void" style="text;strokeColor=none;fillColor=none;align=left;verticalAlign=top;spacingLeft=4;spacingRight=4;overflow=hidden;rotatable=0;points=[[0,0.5],[1,0.5]];portConstraint=eastwest;" vertex="1" parent="-Nn-KrMIZRTyAtg2YQ6r-380">
          <mxGeometry y="137.96875" width="340" height="26" as="geometry" />
        </mxCell>
        <mxCell id="-Nn-KrMIZRTyAtg2YQ6r-387" value="+saveHangar() : void" style="text;strokeColor=none;fillColor=none;align=left;verticalAlign=top;spacingLeft=4;spacingRight=4;overflow=hidden;rotatable=0;points=[[0,0.5],[1,0.5]];portConstraint=eastwest;" vertex="1" parent="-Nn-KrMIZRTyAtg2YQ6r-380">
          <mxGeometry y="163.96875" width="340" height="26" as="geometry" />
        </mxCell>
        <mxCell id="-Nn-KrMIZRTyAtg2YQ6r-388" value="+closeWindow() : void" style="text;strokeColor=none;fillColor=none;align=left;verticalAlign=top;spacingLeft=4;spacingRight=4;overflow=hidden;rotatable=0;points=[[0,0.5],[1,0.5]];portConstraint=eastwest;" vertex="1" parent="-Nn-KrMIZRTyAtg2YQ6r-380">
          <mxGeometry y="189.96875" width="340" height="26" as="geometry" />
        </mxCell>
        <mxCell id="-Nn-KrMIZRTyAtg2YQ6r-389" value="ProductController" style="swimlane;fontStyle=1;align=center;verticalAlign=top;childLayout=stackLayout;horizontal=1;startSize=23.71875;horizontalStack=0;resizeParent=1;resizeParentMax=0;resizeLast=0;collapsible=0;marginBottom=0;" vertex="1" parent="1">
          <mxGeometry x="1360" y="680" width="310" height="583.71875" as="geometry" />
        </mxCell>
        <mxCell id="-Nn-KrMIZRTyAtg2YQ6r-390" value="-amountField : TextField" style="text;strokeColor=none;fillColor=none;align=left;verticalAlign=top;spacingLeft=4;spacingRight=4;overflow=hidden;rotatable=0;points=[[0,0.5],[1,0.5]];portConstraint=eastwest;" vertex="1" parent="-Nn-KrMIZRTyAtg2YQ6r-389">
          <mxGeometry y="23.71875" width="310" height="24" as="geometry" />
        </mxCell>
        <mxCell id="-Nn-KrMIZRTyAtg2YQ6r-391" value="-productNameField : TextField" style="text;strokeColor=none;fillColor=none;align=left;verticalAlign=top;spacingLeft=4;spacingRight=4;overflow=hidden;rotatable=0;points=[[0,0.5],[1,0.5]];portConstraint=eastwest;" vertex="1" parent="-Nn-KrMIZRTyAtg2YQ6r-389">
          <mxGeometry y="47.71875" width="310" height="24" as="geometry" />
        </mxCell>
        <mxCell id="-Nn-KrMIZRTyAtg2YQ6r-392" value="-productNumberField : TextField" style="text;strokeColor=none;fillColor=none;align=left;verticalAlign=top;spacingLeft=4;spacingRight=4;overflow=hidden;rotatable=0;points=[[0,0.5],[1,0.5]];portConstraint=eastwest;" vertex="1" parent="-Nn-KrMIZRTyAtg2YQ6r-389">
          <mxGeometry y="71.71875" width="310" height="24" as="geometry" />
        </mxCell>
        <mxCell id="-Nn-KrMIZRTyAtg2YQ6r-393" value="-manufacturerField : TextField" style="text;strokeColor=none;fillColor=none;align=left;verticalAlign=top;spacingLeft=4;spacingRight=4;overflow=hidden;rotatable=0;points=[[0,0.5],[1,0.5]];portConstraint=eastwest;" vertex="1" parent="-Nn-KrMIZRTyAtg2YQ6r-389">
          <mxGeometry y="95.71875" width="310" height="24" as="geometry" />
        </mxCell>
        <mxCell id="-Nn-KrMIZRTyAtg2YQ6r-394" value="-productTypeDropDown : ComboBox" style="text;strokeColor=none;fillColor=none;align=left;verticalAlign=top;spacingLeft=4;spacingRight=4;overflow=hidden;rotatable=0;points=[[0,0.5],[1,0.5]];portConstraint=eastwest;" vertex="1" parent="-Nn-KrMIZRTyAtg2YQ6r-389">
          <mxGeometry y="119.71875" width="310" height="24" as="geometry" />
        </mxCell>
        <mxCell id="-Nn-KrMIZRTyAtg2YQ6r-395" value="-climateCategoryDropDown : ComboBox" style="text;strokeColor=none;fillColor=none;align=left;verticalAlign=top;spacingLeft=4;spacingRight=4;overflow=hidden;rotatable=0;points=[[0,0.5],[1,0.5]];portConstraint=eastwest;" vertex="1" parent="-Nn-KrMIZRTyAtg2YQ6r-389">
          <mxGeometry y="143.71875" width="310" height="24" as="geometry" />
        </mxCell>
        <mxCell id="-Nn-KrMIZRTyAtg2YQ6r-396" value="-hangarDropDown : ComboBox" style="text;strokeColor=none;fillColor=none;align=left;verticalAlign=top;spacingLeft=4;spacingRight=4;overflow=hidden;rotatable=0;points=[[0,0.5],[1,0.5]];portConstraint=eastwest;" vertex="1" parent="-Nn-KrMIZRTyAtg2YQ6r-389">
          <mxGeometry y="167.71875" width="310" height="24" as="geometry" />
        </mxCell>
        <mxCell id="-Nn-KrMIZRTyAtg2YQ6r-397" value="-shelfDropDown : ComboBox" style="text;strokeColor=none;fillColor=none;align=left;verticalAlign=top;spacingLeft=4;spacingRight=4;overflow=hidden;rotatable=0;points=[[0,0.5],[1,0.5]];portConstraint=eastwest;" vertex="1" parent="-Nn-KrMIZRTyAtg2YQ6r-389">
          <mxGeometry y="191.71875" width="310" height="24" as="geometry" />
        </mxCell>
        <mxCell id="-Nn-KrMIZRTyAtg2YQ6r-398" value="-shelfSpaceDropDown : ComboBox" style="text;strokeColor=none;fillColor=none;align=left;verticalAlign=top;spacingLeft=4;spacingRight=4;overflow=hidden;rotatable=0;points=[[0,0.5],[1,0.5]];portConstraint=eastwest;" vertex="1" parent="-Nn-KrMIZRTyAtg2YQ6r-389">
          <mxGeometry y="215.71875" width="310" height="24" as="geometry" />
        </mxCell>
        <mxCell id="-Nn-KrMIZRTyAtg2YQ6r-399" value="-expiryDateField : TextField" style="text;strokeColor=none;fillColor=none;align=left;verticalAlign=top;spacingLeft=4;spacingRight=4;overflow=hidden;rotatable=0;points=[[0,0.5],[1,0.5]];portConstraint=eastwest;" vertex="1" parent="-Nn-KrMIZRTyAtg2YQ6r-389">
          <mxGeometry y="239.71875" width="310" height="24" as="geometry" />
        </mxCell>
        <mxCell id="-Nn-KrMIZRTyAtg2YQ6r-400" value="-temperatureField : TextField" style="text;strokeColor=none;fillColor=none;align=left;verticalAlign=top;spacingLeft=4;spacingRight=4;overflow=hidden;rotatable=0;points=[[0,0.5],[1,0.5]];portConstraint=eastwest;" vertex="1" parent="-Nn-KrMIZRTyAtg2YQ6r-389">
          <mxGeometry y="263.71875" width="310" height="24" as="geometry" />
        </mxCell>
        <mxCell id="-Nn-KrMIZRTyAtg2YQ6r-401" value="-expiryDateText : Text" style="text;strokeColor=none;fillColor=none;align=left;verticalAlign=top;spacingLeft=4;spacingRight=4;overflow=hidden;rotatable=0;points=[[0,0.5],[1,0.5]];portConstraint=eastwest;" vertex="1" parent="-Nn-KrMIZRTyAtg2YQ6r-389">
          <mxGeometry y="287.71875" width="310" height="24" as="geometry" />
        </mxCell>
        <mxCell id="-Nn-KrMIZRTyAtg2YQ6r-402" value="-climateCategoryText : Text" style="text;strokeColor=none;fillColor=none;align=left;verticalAlign=top;spacingLeft=4;spacingRight=4;overflow=hidden;rotatable=0;points=[[0,0.5],[1,0.5]];portConstraint=eastwest;" vertex="1" parent="-Nn-KrMIZRTyAtg2YQ6r-389">
          <mxGeometry y="311.71875" width="310" height="24" as="geometry" />
        </mxCell>
        <mxCell id="-Nn-KrMIZRTyAtg2YQ6r-403" value="-temperatureText : Text" style="text;strokeColor=none;fillColor=none;align=left;verticalAlign=top;spacingLeft=4;spacingRight=4;overflow=hidden;rotatable=0;points=[[0,0.5],[1,0.5]];portConstraint=eastwest;" vertex="1" parent="-Nn-KrMIZRTyAtg2YQ6r-389">
          <mxGeometry y="335.71875" width="310" height="24" as="geometry" />
        </mxCell>
        <mxCell id="-Nn-KrMIZRTyAtg2YQ6r-404" value="-submitAdd : Button" style="text;strokeColor=none;fillColor=none;align=left;verticalAlign=top;spacingLeft=4;spacingRight=4;overflow=hidden;rotatable=0;points=[[0,0.5],[1,0.5]];portConstraint=eastwest;" vertex="1" parent="-Nn-KrMIZRTyAtg2YQ6r-389">
          <mxGeometry y="359.71875" width="310" height="24" as="geometry" />
        </mxCell>
        <mxCell id="-Nn-KrMIZRTyAtg2YQ6r-405" value="-cancelAdd : Button" style="text;strokeColor=none;fillColor=none;align=left;verticalAlign=top;spacingLeft=4;spacingRight=4;overflow=hidden;rotatable=0;points=[[0,0.5],[1,0.5]];portConstraint=eastwest;" vertex="1" parent="-Nn-KrMIZRTyAtg2YQ6r-389">
          <mxGeometry y="383.71875" width="310" height="24" as="geometry" />
        </mxCell>
        <mxCell id="-Nn-KrMIZRTyAtg2YQ6r-406" style="line;strokeWidth=1;fillColor=none;align=left;verticalAlign=middle;spacingTop=-1;spacingLeft=3;spacingRight=3;rotatable=0;labelPosition=right;points=[];portConstraint=eastwest;strokeColor=inherit;" vertex="1" parent="-Nn-KrMIZRTyAtg2YQ6r-389">
          <mxGeometry y="407.71875" width="310" height="8" as="geometry" />
        </mxCell>
        <mxCell id="-Nn-KrMIZRTyAtg2YQ6r-407" value="+initialize(url : URL, resources : ResourceBundle) : void" style="text;strokeColor=none;fillColor=none;align=left;verticalAlign=top;spacingLeft=4;spacingRight=4;overflow=hidden;rotatable=0;points=[[0,0.5],[1,0.5]];portConstraint=eastwest;" vertex="1" parent="-Nn-KrMIZRTyAtg2YQ6r-389">
          <mxGeometry y="415.71875" width="310" height="24" as="geometry" />
        </mxCell>
        <mxCell id="-Nn-KrMIZRTyAtg2YQ6r-408" value="+closeWindow() : void" style="text;strokeColor=none;fillColor=none;align=left;verticalAlign=top;spacingLeft=4;spacingRight=4;overflow=hidden;rotatable=0;points=[[0,0.5],[1,0.5]];portConstraint=eastwest;" vertex="1" parent="-Nn-KrMIZRTyAtg2YQ6r-389">
          <mxGeometry y="439.71875" width="310" height="24" as="geometry" />
        </mxCell>
        <mxCell id="-Nn-KrMIZRTyAtg2YQ6r-409" value="+saveProduct() : void" style="text;strokeColor=none;fillColor=none;align=left;verticalAlign=top;spacingLeft=4;spacingRight=4;overflow=hidden;rotatable=0;points=[[0,0.5],[1,0.5]];portConstraint=eastwest;" vertex="1" parent="-Nn-KrMIZRTyAtg2YQ6r-389">
          <mxGeometry y="463.71875" width="310" height="24" as="geometry" />
        </mxCell>
        <mxCell id="-Nn-KrMIZRTyAtg2YQ6r-410" value="+hideAllExtraItems() : void" style="text;strokeColor=none;fillColor=none;align=left;verticalAlign=top;spacingLeft=4;spacingRight=4;overflow=hidden;rotatable=0;points=[[0,0.5],[1,0.5]];portConstraint=eastwest;" vertex="1" parent="-Nn-KrMIZRTyAtg2YQ6r-389">
          <mxGeometry y="487.71875" width="310" height="24" as="geometry" />
        </mxCell>
        <mxCell id="-Nn-KrMIZRTyAtg2YQ6r-411" value="+handleProductTypeButton(event : ActionEvent) : void" style="text;strokeColor=none;fillColor=none;align=left;verticalAlign=top;spacingLeft=4;spacingRight=4;overflow=hidden;rotatable=0;points=[[0,0.5],[1,0.5]];portConstraint=eastwest;" vertex="1" parent="-Nn-KrMIZRTyAtg2YQ6r-389">
          <mxGeometry y="511.71875" width="310" height="24" as="geometry" />
        </mxCell>
        <mxCell id="-Nn-KrMIZRTyAtg2YQ6r-412" value="+hangarSelectionChanged(event : ActionEvent) : void" style="text;strokeColor=none;fillColor=none;align=left;verticalAlign=top;spacingLeft=4;spacingRight=4;overflow=hidden;rotatable=0;points=[[0,0.5],[1,0.5]];portConstraint=eastwest;" vertex="1" parent="-Nn-KrMIZRTyAtg2YQ6r-389">
          <mxGeometry y="535.71875" width="310" height="24" as="geometry" />
        </mxCell>
        <mxCell id="-Nn-KrMIZRTyAtg2YQ6r-413" value="+shelfSelectionChanged(event : ActionEvent) : void" style="text;strokeColor=none;fillColor=none;align=left;verticalAlign=top;spacingLeft=4;spacingRight=4;overflow=hidden;rotatable=0;points=[[0,0.5],[1,0.5]];portConstraint=eastwest;" vertex="1" parent="-Nn-KrMIZRTyAtg2YQ6r-389">
          <mxGeometry y="559.71875" width="310" height="24" as="geometry" />
        </mxCell>
        <mxCell id="-Nn-KrMIZRTyAtg2YQ6r-414" value="ShelfController" style="swimlane;fontStyle=1;align=center;verticalAlign=top;childLayout=stackLayout;horizontal=1;startSize=25.048295454545453;horizontalStack=0;resizeParent=1;resizeParentMax=0;resizeLast=0;collapsible=0;marginBottom=0;" vertex="1" parent="1">
          <mxGeometry x="1720" y="680" width="340" height="283.04829545454544" as="geometry" />
        </mxCell>
        <mxCell id="-Nn-KrMIZRTyAtg2YQ6r-415" value="-regalbezeichnung : TextField" style="text;strokeColor=none;fillColor=none;align=left;verticalAlign=top;spacingLeft=4;spacingRight=4;overflow=hidden;rotatable=0;points=[[0,0.5],[1,0.5]];portConstraint=eastwest;" vertex="1" parent="-Nn-KrMIZRTyAtg2YQ6r-414">
          <mxGeometry y="25.048295454545453" width="340" height="25" as="geometry" />
        </mxCell>
        <mxCell id="-Nn-KrMIZRTyAtg2YQ6r-416" value="-anzahlPlaetze : TextField" style="text;strokeColor=none;fillColor=none;align=left;verticalAlign=top;spacingLeft=4;spacingRight=4;overflow=hidden;rotatable=0;points=[[0,0.5],[1,0.5]];portConstraint=eastwest;" vertex="1" parent="-Nn-KrMIZRTyAtg2YQ6r-414">
          <mxGeometry y="50.04829545454545" width="340" height="25" as="geometry" />
        </mxCell>
        <mxCell id="-Nn-KrMIZRTyAtg2YQ6r-417" value="-selectHangar : ComboBox" style="text;strokeColor=none;fillColor=none;align=left;verticalAlign=top;spacingLeft=4;spacingRight=4;overflow=hidden;rotatable=0;points=[[0,0.5],[1,0.5]];portConstraint=eastwest;" vertex="1" parent="-Nn-KrMIZRTyAtg2YQ6r-414">
          <mxGeometry y="75.04829545454545" width="340" height="25" as="geometry" />
        </mxCell>
        <mxCell id="-Nn-KrMIZRTyAtg2YQ6r-418" value="-regaltyp : ComboBox" style="text;strokeColor=none;fillColor=none;align=left;verticalAlign=top;spacingLeft=4;spacingRight=4;overflow=hidden;rotatable=0;points=[[0,0.5],[1,0.5]];portConstraint=eastwest;" vertex="1" parent="-Nn-KrMIZRTyAtg2YQ6r-414">
          <mxGeometry y="100.04829545454545" width="340" height="25" as="geometry" />
        </mxCell>
        <mxCell id="-Nn-KrMIZRTyAtg2YQ6r-419" value="-regalkategorie : ComboBox" style="text;strokeColor=none;fillColor=none;align=left;verticalAlign=top;spacingLeft=4;spacingRight=4;overflow=hidden;rotatable=0;points=[[0,0.5],[1,0.5]];portConstraint=eastwest;" vertex="1" parent="-Nn-KrMIZRTyAtg2YQ6r-414">
          <mxGeometry y="125.04829545454545" width="340" height="25" as="geometry" />
        </mxCell>
        <mxCell id="-Nn-KrMIZRTyAtg2YQ6r-420" value="-submitAdd : Button" style="text;strokeColor=none;fillColor=none;align=left;verticalAlign=top;spacingLeft=4;spacingRight=4;overflow=hidden;rotatable=0;points=[[0,0.5],[1,0.5]];portConstraint=eastwest;" vertex="1" parent="-Nn-KrMIZRTyAtg2YQ6r-414">
          <mxGeometry y="150.04829545454544" width="340" height="25" as="geometry" />
        </mxCell>
        <mxCell id="-Nn-KrMIZRTyAtg2YQ6r-421" value="-cancelAdd : Button" style="text;strokeColor=none;fillColor=none;align=left;verticalAlign=top;spacingLeft=4;spacingRight=4;overflow=hidden;rotatable=0;points=[[0,0.5],[1,0.5]];portConstraint=eastwest;" vertex="1" parent="-Nn-KrMIZRTyAtg2YQ6r-414">
          <mxGeometry y="175.04829545454544" width="340" height="25" as="geometry" />
        </mxCell>
        <mxCell id="-Nn-KrMIZRTyAtg2YQ6r-422" style="line;strokeWidth=1;fillColor=none;align=left;verticalAlign=middle;spacingTop=-1;spacingLeft=3;spacingRight=3;rotatable=0;labelPosition=right;points=[];portConstraint=eastwest;strokeColor=inherit;" vertex="1" parent="-Nn-KrMIZRTyAtg2YQ6r-414">
          <mxGeometry y="200.04829545454544" width="340" height="8" as="geometry" />
        </mxCell>
        <mxCell id="-Nn-KrMIZRTyAtg2YQ6r-423" value="+initialize(location : URL, resources : ResourceBundle) : void" style="text;strokeColor=none;fillColor=none;align=left;verticalAlign=top;spacingLeft=4;spacingRight=4;overflow=hidden;rotatable=0;points=[[0,0.5],[1,0.5]];portConstraint=eastwest;" vertex="1" parent="-Nn-KrMIZRTyAtg2YQ6r-414">
          <mxGeometry y="208.04829545454544" width="340" height="25" as="geometry" />
        </mxCell>
        <mxCell id="-Nn-KrMIZRTyAtg2YQ6r-424" value="+saveShelf() : void" style="text;strokeColor=none;fillColor=none;align=left;verticalAlign=top;spacingLeft=4;spacingRight=4;overflow=hidden;rotatable=0;points=[[0,0.5],[1,0.5]];portConstraint=eastwest;" vertex="1" parent="-Nn-KrMIZRTyAtg2YQ6r-414">
          <mxGeometry y="233.04829545454544" width="340" height="25" as="geometry" />
        </mxCell>
        <mxCell id="-Nn-KrMIZRTyAtg2YQ6r-425" value="+closeWindow() : void" style="text;strokeColor=none;fillColor=none;align=left;verticalAlign=top;spacingLeft=4;spacingRight=4;overflow=hidden;rotatable=0;points=[[0,0.5],[1,0.5]];portConstraint=eastwest;" vertex="1" parent="-Nn-KrMIZRTyAtg2YQ6r-414">
          <mxGeometry y="258.04829545454544" width="340" height="25" as="geometry" />
        </mxCell>
        <mxCell id="-Nn-KrMIZRTyAtg2YQ6r-426" value="Compare" style="swimlane;fontStyle=1;align=center;verticalAlign=top;childLayout=stackLayout;horizontal=1;startSize=27.080357142857142;horizontalStack=0;resizeParent=1;resizeParentMax=0;resizeLast=0;collapsible=0;marginBottom=0;" vertex="1" parent="1">
          <mxGeometry x="-260" y="2840" width="399" height="89.08035714285714" as="geometry" />
        </mxCell>
        <mxCell id="-Nn-KrMIZRTyAtg2YQ6r-427" style="line;strokeWidth=1;fillColor=none;align=left;verticalAlign=middle;spacingTop=-1;spacingLeft=3;spacingRight=3;rotatable=0;labelPosition=right;points=[];portConstraint=eastwest;strokeColor=inherit;" vertex="1" parent="-Nn-KrMIZRTyAtg2YQ6r-426">
          <mxGeometry y="27.080357142857142" width="399" height="8" as="geometry" />
        </mxCell>
        <mxCell id="-Nn-KrMIZRTyAtg2YQ6r-428" value="+compareObjects(objects : ArrayList) : boolean" style="text;strokeColor=none;fillColor=none;align=left;verticalAlign=top;spacingLeft=4;spacingRight=4;overflow=hidden;rotatable=0;points=[[0,0.5],[1,0.5]];portConstraint=eastwest;" vertex="1" parent="-Nn-KrMIZRTyAtg2YQ6r-426">
          <mxGeometry y="35.08035714285714" width="399" height="27" as="geometry" />
        </mxCell>
        <mxCell id="-Nn-KrMIZRTyAtg2YQ6r-429" value="-objectsEqual(obj1 : Object, obj2 : Object) : boolean" style="text;strokeColor=none;fillColor=none;align=left;verticalAlign=top;spacingLeft=4;spacingRight=4;overflow=hidden;rotatable=0;points=[[0,0.5],[1,0.5]];portConstraint=eastwest;" vertex="1" parent="-Nn-KrMIZRTyAtg2YQ6r-426">
          <mxGeometry y="62.08035714285714" width="399" height="27" as="geometry" />
        </mxCell>
        <mxCell id="-Nn-KrMIZRTyAtg2YQ6r-430" value="Displayer" style="swimlane;fontStyle=1;align=center;verticalAlign=top;childLayout=stackLayout;horizontal=1;startSize=27.080357142857142;horizontalStack=0;resizeParent=1;resizeParentMax=0;resizeLast=0;collapsible=0;marginBottom=0;" vertex="1" parent="1">
          <mxGeometry x="185" y="2840" width="355" height="89.08035714285714" as="geometry" />
        </mxCell>
        <mxCell id="-Nn-KrMIZRTyAtg2YQ6r-431" style="line;strokeWidth=1;fillColor=none;align=left;verticalAlign=middle;spacingTop=-1;spacingLeft=3;spacingRight=3;rotatable=0;labelPosition=right;points=[];portConstraint=eastwest;strokeColor=inherit;" vertex="1" parent="-Nn-KrMIZRTyAtg2YQ6r-430">
          <mxGeometry y="27.080357142857142" width="355" height="8" as="geometry" />
        </mxCell>
        <mxCell id="-Nn-KrMIZRTyAtg2YQ6r-432" value="+Displayer() : void" style="text;strokeColor=none;fillColor=none;align=left;verticalAlign=top;spacingLeft=4;spacingRight=4;overflow=hidden;rotatable=0;points=[[0,0.5],[1,0.5]];portConstraint=eastwest;" vertex="1" parent="-Nn-KrMIZRTyAtg2YQ6r-430">
          <mxGeometry y="35.08035714285714" width="355" height="27" as="geometry" />
        </mxCell>
        <mxCell id="-Nn-KrMIZRTyAtg2YQ6r-433" value="+displayObject(ob : Object, at : String[]) : void" style="text;strokeColor=none;fillColor=none;align=left;verticalAlign=top;spacingLeft=4;spacingRight=4;overflow=hidden;rotatable=0;points=[[0,0.5],[1,0.5]];portConstraint=eastwest;" vertex="1" parent="-Nn-KrMIZRTyAtg2YQ6r-430">
          <mxGeometry y="62.08035714285714" width="355" height="27" as="geometry" />
        </mxCell>
        <mxCell id="-Nn-KrMIZRTyAtg2YQ6r-434" value="SQL" style="swimlane;fontStyle=1;align=center;verticalAlign=top;childLayout=stackLayout;horizontal=1;startSize=24.09375;horizontalStack=0;resizeParent=1;resizeParentMax=0;resizeLast=0;collapsible=0;marginBottom=0;" vertex="1" parent="1">
          <mxGeometry x="588" y="2840" width="390" height="440.09375" as="geometry" />
        </mxCell>
        <mxCell id="-Nn-KrMIZRTyAtg2YQ6r-435" value="-noConnectionErrorMsg : String" style="text;strokeColor=none;fillColor=none;align=left;verticalAlign=top;spacingLeft=4;spacingRight=4;overflow=hidden;rotatable=0;points=[[0,0.5],[1,0.5]];portConstraint=eastwest;" vertex="1" parent="-Nn-KrMIZRTyAtg2YQ6r-434">
          <mxGeometry y="24.09375" width="390" height="24" as="geometry" />
        </mxCell>
        <mxCell id="-Nn-KrMIZRTyAtg2YQ6r-436" value="-host : String" style="text;strokeColor=none;fillColor=none;align=left;verticalAlign=top;spacingLeft=4;spacingRight=4;overflow=hidden;rotatable=0;points=[[0,0.5],[1,0.5]];portConstraint=eastwest;" vertex="1" parent="-Nn-KrMIZRTyAtg2YQ6r-434">
          <mxGeometry y="48.09375" width="390" height="24" as="geometry" />
        </mxCell>
        <mxCell id="-Nn-KrMIZRTyAtg2YQ6r-437" value="-port : String" style="text;strokeColor=none;fillColor=none;align=left;verticalAlign=top;spacingLeft=4;spacingRight=4;overflow=hidden;rotatable=0;points=[[0,0.5],[1,0.5]];portConstraint=eastwest;" vertex="1" parent="-Nn-KrMIZRTyAtg2YQ6r-434">
          <mxGeometry y="72.09375" width="390" height="24" as="geometry" />
        </mxCell>
        <mxCell id="-Nn-KrMIZRTyAtg2YQ6r-438" value="-database : String" style="text;strokeColor=none;fillColor=none;align=left;verticalAlign=top;spacingLeft=4;spacingRight=4;overflow=hidden;rotatable=0;points=[[0,0.5],[1,0.5]];portConstraint=eastwest;" vertex="1" parent="-Nn-KrMIZRTyAtg2YQ6r-434">
          <mxGeometry y="96.09375" width="390" height="24" as="geometry" />
        </mxCell>
        <mxCell id="-Nn-KrMIZRTyAtg2YQ6r-439" value="-username : String" style="text;strokeColor=none;fillColor=none;align=left;verticalAlign=top;spacingLeft=4;spacingRight=4;overflow=hidden;rotatable=0;points=[[0,0.5],[1,0.5]];portConstraint=eastwest;" vertex="1" parent="-Nn-KrMIZRTyAtg2YQ6r-434">
          <mxGeometry y="120.09375" width="390" height="24" as="geometry" />
        </mxCell>
        <mxCell id="-Nn-KrMIZRTyAtg2YQ6r-440" value="-password : String" style="text;strokeColor=none;fillColor=none;align=left;verticalAlign=top;spacingLeft=4;spacingRight=4;overflow=hidden;rotatable=0;points=[[0,0.5],[1,0.5]];portConstraint=eastwest;" vertex="1" parent="-Nn-KrMIZRTyAtg2YQ6r-434">
          <mxGeometry y="144.09375" width="390" height="24" as="geometry" />
        </mxCell>
        <mxCell id="-Nn-KrMIZRTyAtg2YQ6r-441" value="-con : Connection" style="text;strokeColor=none;fillColor=none;align=left;verticalAlign=top;spacingLeft=4;spacingRight=4;overflow=hidden;rotatable=0;points=[[0,0.5],[1,0.5]];portConstraint=eastwest;" vertex="1" parent="-Nn-KrMIZRTyAtg2YQ6r-434">
          <mxGeometry y="168.09375" width="390" height="24" as="geometry" />
        </mxCell>
        <mxCell id="-Nn-KrMIZRTyAtg2YQ6r-442" style="line;strokeWidth=1;fillColor=none;align=left;verticalAlign=middle;spacingTop=-1;spacingLeft=3;spacingRight=3;rotatable=0;labelPosition=right;points=[];portConstraint=eastwest;strokeColor=inherit;" vertex="1" parent="-Nn-KrMIZRTyAtg2YQ6r-434">
          <mxGeometry y="192.09375" width="390" height="8" as="geometry" />
        </mxCell>
        <mxCell id="-Nn-KrMIZRTyAtg2YQ6r-443" value="+getNoConnectionErrorMsg() : String" style="text;strokeColor=none;fillColor=none;align=left;verticalAlign=top;spacingLeft=4;spacingRight=4;overflow=hidden;rotatable=0;points=[[0,0.5],[1,0.5]];portConstraint=eastwest;" vertex="1" parent="-Nn-KrMIZRTyAtg2YQ6r-434">
          <mxGeometry y="200.09375" width="390" height="24" as="geometry" />
        </mxCell>
        <mxCell id="-Nn-KrMIZRTyAtg2YQ6r-444" value="+isConnected() : boolean" style="text;strokeColor=none;fillColor=none;align=left;verticalAlign=top;spacingLeft=4;spacingRight=4;overflow=hidden;rotatable=0;points=[[0,0.5],[1,0.5]];portConstraint=eastwest;" vertex="1" parent="-Nn-KrMIZRTyAtg2YQ6r-434">
          <mxGeometry y="224.09375" width="390" height="24" as="geometry" />
        </mxCell>
        <mxCell id="-Nn-KrMIZRTyAtg2YQ6r-445" value="+connect() : void" style="text;strokeColor=none;fillColor=none;align=left;verticalAlign=top;spacingLeft=4;spacingRight=4;overflow=hidden;rotatable=0;points=[[0,0.5],[1,0.5]];portConstraint=eastwest;" vertex="1" parent="-Nn-KrMIZRTyAtg2YQ6r-434">
          <mxGeometry y="248.09375" width="390" height="24" as="geometry" />
        </mxCell>
        <mxCell id="-Nn-KrMIZRTyAtg2YQ6r-446" value="+reconnect() : void" style="text;strokeColor=none;fillColor=none;align=left;verticalAlign=top;spacingLeft=4;spacingRight=4;overflow=hidden;rotatable=0;points=[[0,0.5],[1,0.5]];portConstraint=eastwest;" vertex="1" parent="-Nn-KrMIZRTyAtg2YQ6r-434">
          <mxGeometry y="272.09375" width="390" height="24" as="geometry" />
        </mxCell>
        <mxCell id="-Nn-KrMIZRTyAtg2YQ6r-447" value="+disconnect() : void" style="text;strokeColor=none;fillColor=none;align=left;verticalAlign=top;spacingLeft=4;spacingRight=4;overflow=hidden;rotatable=0;points=[[0,0.5],[1,0.5]];portConstraint=eastwest;" vertex="1" parent="-Nn-KrMIZRTyAtg2YQ6r-434">
          <mxGeometry y="296.09375" width="390" height="24" as="geometry" />
        </mxCell>
        <mxCell id="-Nn-KrMIZRTyAtg2YQ6r-448" value="+disconnect(modelCon : Connection) : void" style="text;strokeColor=none;fillColor=none;align=left;verticalAlign=top;spacingLeft=4;spacingRight=4;overflow=hidden;rotatable=0;points=[[0,0.5],[1,0.5]];portConstraint=eastwest;" vertex="1" parent="-Nn-KrMIZRTyAtg2YQ6r-434">
          <mxGeometry y="320.09375" width="390" height="24" as="geometry" />
        </mxCell>
        <mxCell id="-Nn-KrMIZRTyAtg2YQ6r-449" value="+query(query : String, parameters : Object[]) : ResultSet" style="text;strokeColor=none;fillColor=none;align=left;verticalAlign=top;spacingLeft=4;spacingRight=4;overflow=hidden;rotatable=0;points=[[0,0.5],[1,0.5]];portConstraint=eastwest;" vertex="1" parent="-Nn-KrMIZRTyAtg2YQ6r-434">
          <mxGeometry y="344.09375" width="390" height="24" as="geometry" />
        </mxCell>
        <mxCell id="-Nn-KrMIZRTyAtg2YQ6r-450" value="+update(sql : String, parameters : Object[]) : boolean" style="text;strokeColor=none;fillColor=none;align=left;verticalAlign=top;spacingLeft=4;spacingRight=4;overflow=hidden;rotatable=0;points=[[0,0.5],[1,0.5]];portConstraint=eastwest;" vertex="1" parent="-Nn-KrMIZRTyAtg2YQ6r-434">
          <mxGeometry y="368.09375" width="390" height="24" as="geometry" />
        </mxCell>
        <mxCell id="-Nn-KrMIZRTyAtg2YQ6r-451" value="+updateTransactionally(sqls : List, parametersList : List&amp;gt;) : boolean" style="text;strokeColor=none;fillColor=none;align=left;verticalAlign=top;spacingLeft=4;spacingRight=4;overflow=hidden;rotatable=0;points=[[0,0.5],[1,0.5]];portConstraint=eastwest;" vertex="1" parent="-Nn-KrMIZRTyAtg2YQ6r-434">
          <mxGeometry y="392.09375" width="390" height="24" as="geometry" />
        </mxCell>
        <mxCell id="-Nn-KrMIZRTyAtg2YQ6r-452" value="+getConnection() : Connection" style="text;strokeColor=none;fillColor=none;align=left;verticalAlign=top;spacingLeft=4;spacingRight=4;overflow=hidden;rotatable=0;points=[[0,0.5],[1,0.5]];portConstraint=eastwest;" vertex="1" parent="-Nn-KrMIZRTyAtg2YQ6r-434">
          <mxGeometry y="416.09375" width="390" height="24" as="geometry" />
        </mxCell>
        <mxCell id="-Nn-KrMIZRTyAtg2YQ6r-453" value="StringUtils" style="swimlane;fontStyle=1;align=center;verticalAlign=top;childLayout=stackLayout;horizontal=1;startSize=28.875;horizontalStack=0;resizeParent=1;resizeParentMax=0;resizeLast=0;collapsible=0;marginBottom=0;" vertex="1" parent="1">
          <mxGeometry x="1030" y="2840" width="297" height="65.875" as="geometry" />
        </mxCell>
        <mxCell id="-Nn-KrMIZRTyAtg2YQ6r-454" style="line;strokeWidth=1;fillColor=none;align=left;verticalAlign=middle;spacingTop=-1;spacingLeft=3;spacingRight=3;rotatable=0;labelPosition=right;points=[];portConstraint=eastwest;strokeColor=inherit;" vertex="1" parent="-Nn-KrMIZRTyAtg2YQ6r-453">
          <mxGeometry y="28.875" width="297" height="8" as="geometry" />
        </mxCell>
        <mxCell id="-Nn-KrMIZRTyAtg2YQ6r-455" value="+toLowerCaseOrNA(str : String) : String" style="text;strokeColor=none;fillColor=none;align=left;verticalAlign=top;spacingLeft=4;spacingRight=4;overflow=hidden;rotatable=0;points=[[0,0.5],[1,0.5]];portConstraint=eastwest;" vertex="1" parent="-Nn-KrMIZRTyAtg2YQ6r-453">
          <mxGeometry y="36.875" width="297" height="29" as="geometry" />
        </mxCell>
        <mxCell id="-Nn-KrMIZRTyAtg2YQ6r-456" value="App" style="swimlane;fontStyle=1;align=center;verticalAlign=top;childLayout=stackLayout;horizontal=1;startSize=27.09375;horizontalStack=0;resizeParent=1;resizeParentMax=0;resizeLast=0;collapsible=0;marginBottom=0;" vertex="1" parent="1">
          <mxGeometry x="1360" y="2837" width="207" height="170.09375" as="geometry" />
        </mxCell>
        <mxCell id="-Nn-KrMIZRTyAtg2YQ6r-457" value="-Scene scene" style="text;strokeColor=none;fillColor=none;align=left;verticalAlign=top;spacingLeft=4;spacingRight=4;overflow=hidden;rotatable=0;points=[[0,0.5],[1,0.5]];portConstraint=eastwest;" vertex="1" parent="-Nn-KrMIZRTyAtg2YQ6r-456">
          <mxGeometry y="27.09375" width="207" height="27" as="geometry" />
        </mxCell>
        <mxCell id="-Nn-KrMIZRTyAtg2YQ6r-458" style="line;strokeWidth=1;fillColor=none;align=left;verticalAlign=middle;spacingTop=-1;spacingLeft=3;spacingRight=3;rotatable=0;labelPosition=right;points=[];portConstraint=eastwest;strokeColor=inherit;" vertex="1" parent="-Nn-KrMIZRTyAtg2YQ6r-456">
          <mxGeometry y="54.09375" width="207" height="8" as="geometry" />
        </mxCell>
        <mxCell id="-Nn-KrMIZRTyAtg2YQ6r-459" value="+start(Stage) : void" style="text;strokeColor=none;fillColor=none;align=left;verticalAlign=top;spacingLeft=4;spacingRight=4;overflow=hidden;rotatable=0;points=[[0,0.5],[1,0.5]];portConstraint=eastwest;" vertex="1" parent="-Nn-KrMIZRTyAtg2YQ6r-456">
          <mxGeometry y="62.09375" width="207" height="27" as="geometry" />
        </mxCell>
        <mxCell id="-Nn-KrMIZRTyAtg2YQ6r-460" value="+setRoot(String) : void" style="text;strokeColor=none;fillColor=none;align=left;verticalAlign=top;spacingLeft=4;spacingRight=4;overflow=hidden;rotatable=0;points=[[0,0.5],[1,0.5]];portConstraint=eastwest;" vertex="1" parent="-Nn-KrMIZRTyAtg2YQ6r-456">
          <mxGeometry y="89.09375" width="207" height="27" as="geometry" />
        </mxCell>
        <mxCell id="-Nn-KrMIZRTyAtg2YQ6r-461" value="+loadFXML(String) : Parent" style="text;strokeColor=none;fillColor=none;align=left;verticalAlign=top;spacingLeft=4;spacingRight=4;overflow=hidden;rotatable=0;points=[[0,0.5],[1,0.5]];portConstraint=eastwest;" vertex="1" parent="-Nn-KrMIZRTyAtg2YQ6r-456">
          <mxGeometry y="116.09375" width="207" height="27" as="geometry" />
        </mxCell>
        <mxCell id="-Nn-KrMIZRTyAtg2YQ6r-462" value="+main(String[]) : void" style="text;strokeColor=none;fillColor=none;align=left;verticalAlign=top;spacingLeft=4;spacingRight=4;overflow=hidden;rotatable=0;points=[[0,0.5],[1,0.5]];portConstraint=eastwest;" vertex="1" parent="-Nn-KrMIZRTyAtg2YQ6r-456">
          <mxGeometry y="143.09375" width="207" height="27" as="geometry" />
        </mxCell>
      </root>
    </mxGraphModel>
  </diagram>
</mxfile>
